<svg width="15" height="15" viewBox="0 0 15 15" fill="none" xmlns="http://www.w3.org/2000/svg">
<g clip-path="url(#clip0_13_983)">
<path d="M7.5 15C11.6421 15 15 11.6421 15 7.5C15 3.35786 11.6421 0 7.5 0C3.35786 0 0 3.35786 0 7.5C0 11.6421 3.35786 15 7.5 15Z" fill="#A36C22"/>
<path d="M7.50003 0C7.36615 0 7.23311 0.00366211 7.10095 0.0105762C11.0576 0.218057 14.2019 3.49175 14.2019 7.5C14.2019 11.5083 11.0576 14.7819 7.10095 14.9894C7.23311 14.9963 7.36615 15 7.50003 15C11.6422 15 15 11.6421 15 7.5C15 3.35786 11.6422 0 7.50003 0Z" fill="#82561A"/>
<path d="M7.50011 13.3445C10.7279 13.3445 13.3445 10.7278 13.3445 7.50011C13.3445 4.27236 10.7279 1.65576 7.50011 1.65576C4.27236 1.65576 1.65576 4.27236 1.65576 7.50011C1.65576 10.7278 4.27236 13.3445 7.50011 13.3445Z" fill="#F4FBFF"/>
<path d="M7.50002 1.65576C7.33816 1.65576 7.17793 1.66265 7.01941 1.67554C10.0223 1.91999 12.3832 4.43422 12.3832 7.50011C12.3832 10.566 10.0223 13.0802 7.01941 13.3247C7.17793 13.3376 7.33816 13.3445 7.50002 13.3445C10.7278 13.3445 13.3444 10.7279 13.3444 7.50014C13.3444 4.27241 10.7278 1.65576 7.50002 1.65576Z" fill="#DAF1F4"/>
<path d="M7.50003 3.45436C7.37502 3.45436 7.27368 3.35302 7.27368 3.22801V2.89578C7.27368 2.77077 7.37502 2.66943 7.50003 2.66943C7.62504 2.66943 7.7264 2.77077 7.7264 2.89578V3.22801C7.7264 3.35302 7.62504 3.45436 7.50003 3.45436Z" fill="#2B4D66"/>
<path d="M10.5085 4.71058C10.4505 4.71058 10.3926 4.68846 10.3484 4.64428C10.26 4.55586 10.26 4.41257 10.3484 4.32415L10.5834 4.08925C10.6717 4.00083 10.8151 4.00086 10.9035 4.08925C10.9919 4.17767 10.9919 4.32096 10.9035 4.40938L10.6685 4.64431C10.6243 4.68846 10.5664 4.71058 10.5085 4.71058Z" fill="#2B4D66"/>
<path d="M12.0794 7.72613H11.7472C11.6222 7.72613 11.5209 7.6248 11.5209 7.49979C11.5209 7.37478 11.6222 7.27344 11.7472 7.27344H12.0794C12.2045 7.27344 12.3058 7.37478 12.3058 7.49979C12.3058 7.6248 12.2045 7.72613 12.0794 7.72613Z" fill="#2B4D66"/>
<path d="M10.7259 10.9694C10.668 10.9694 10.61 10.9472 10.5658 10.9031L10.3309 10.6682C10.2426 10.5797 10.2426 10.4365 10.3309 10.348C10.4194 10.2596 10.5626 10.2596 10.6511 10.348L10.886 10.5829C10.9744 10.6713 10.9744 10.8146 10.886 10.9031C10.8418 10.9472 10.7838 10.9694 10.7259 10.9694Z" fill="#2B4D66"/>
<path d="M7.47537 12.3059C7.35036 12.3059 7.24902 12.2046 7.24902 12.0796V11.7473C7.24902 11.6223 7.35036 11.521 7.47537 11.521C7.60038 11.521 7.70172 11.6223 7.70172 11.7473V12.0796C7.70172 12.2046 7.60038 12.3059 7.47537 12.3059Z" fill="#2B4D66"/>
<path d="M4.23197 10.9523C4.17405 10.9523 4.1161 10.9302 4.07192 10.886C3.9835 10.7976 3.98353 10.6542 4.07192 10.5658L4.30685 10.3309C4.39527 10.2426 4.53856 10.2425 4.62698 10.331C4.71536 10.4193 4.71536 10.5627 4.62695 10.6511L4.39202 10.886C4.34784 10.9302 4.28989 10.9523 4.23197 10.9523Z" fill="#2B4D66"/>
<path d="M3.22801 7.70172H2.89578C2.77077 7.70172 2.66943 7.60038 2.66943 7.47537C2.66943 7.35036 2.77077 7.24902 2.89578 7.24902H3.22801C3.35302 7.24902 3.45436 7.35036 3.45436 7.47537C3.45438 7.60038 3.35302 7.70172 3.22801 7.70172Z" fill="#2B4D66"/>
<path d="M4.48436 4.69301C4.42644 4.69301 4.36852 4.67092 4.32431 4.62671L4.08938 4.3918C4.00099 4.30339 4.00096 4.1601 4.08935 4.07168C4.17777 3.98329 4.32106 3.98326 4.40948 4.07165L4.64441 4.30658C4.7328 4.39497 4.73283 4.53829 4.64444 4.62671C4.6002 4.67089 4.54228 4.69301 4.48436 4.69301Z" fill="#2B4D66"/>
<path d="M7.50001 7.72635H5.57754C5.45253 7.72635 5.3512 7.62498 5.3512 7.49997C5.3512 7.37496 5.45253 7.27362 5.57754 7.27362H7.27363V4.39383C7.27363 4.26882 7.37497 4.16748 7.49998 4.16748C7.62499 4.16748 7.72633 4.26882 7.72633 4.39383V7.49997C7.72636 7.62498 7.62502 7.72635 7.50001 7.72635Z" fill="#93B0D0"/>
<path d="M9.8222 8.92051C9.78734 8.92051 9.75201 8.91242 9.71887 8.8954L7.39645 7.70115C7.28527 7.64399 7.2415 7.50752 7.29866 7.39634C7.35582 7.28516 7.49228 7.24136 7.60349 7.29855L9.92591 8.49277C10.0371 8.54996 10.0809 8.68643 10.0237 8.79758C9.98354 8.87566 9.90432 8.92051 9.8222 8.92051Z" fill="#DA4A54"/>
<path d="M7.50003 8.10382C7.8337 8.10382 8.10419 7.83333 8.10419 7.49967C8.10419 7.166 7.8337 6.89551 7.50003 6.89551C7.16636 6.89551 6.89587 7.166 6.89587 7.49967C6.89587 7.83333 7.16636 8.10382 7.50003 8.10382Z" fill="#365E7D"/>
</g>
<defs>
<clipPath id="clip0_13_983">
<rect width="15" height="15" fill="white"/>
</clipPath>
</defs>
</svg>
