<svg width="15" height="15" viewBox="0 0 15 15" fill="none" xmlns="http://www.w3.org/2000/svg">
<path d="M5.2516 0.231562L7.77139 4.35483H6.29035L3.85399 0.368086C3.75547 0.206865 3.87151 0 4.06045 0H4.83875C5.00729 0 5.16371 0.0877148 5.2516 0.231562Z" fill="#FF646F"/>
<path d="M5.77694 0C5.94552 0 6.1019 0.0877148 6.18982 0.231562L8.70961 4.35483H7.49992L4.83862 0H5.77694Z" fill="#FF8086"/>
<path d="M9.74831 0.231562L7.22852 4.35483L9.15312 3.62903L11.1459 0.368086C11.2444 0.206865 11.1284 0 10.9395 0H10.1612C9.99262 0 9.8362 0.0877148 9.74831 0.231562Z" fill="#FF8086"/>
<path d="M10.1613 0H9.22293C9.05436 0 8.89797 0.0877148 8.81005 0.231562L6.29028 4.35483H8.70965L9.15321 3.62903H8.3749C8.18597 3.62903 8.06995 3.42217 8.16848 3.26095L10.1613 0Z" fill="#FF646F"/>
<path d="M9.19346 6.04826C9.05972 6.04826 8.95152 5.93992 8.95152 5.80633V4.83859C8.95152 4.70523 8.84307 4.59666 8.70959 4.59666H6.29025C6.15678 4.59666 6.04832 4.70523 6.04832 4.83859V5.80633C6.04832 5.93992 5.9401 6.04826 5.80639 6.04826C5.67265 6.04826 5.56445 5.93992 5.56445 5.80633V4.83859C5.56445 4.43837 5.89003 4.11279 6.29025 4.11279H8.70962C9.10984 4.11279 9.43542 4.43837 9.43542 4.83859V5.80633C9.43542 5.93992 9.3272 6.04826 9.19346 6.04826Z" fill="#FFAA5A"/>
<path d="M12.3386 10.1615C12.3386 11.4049 11.8696 12.5388 11.0988 13.3959C10.213 14.3808 8.92877 14.8585 7.4999 14.8585C4.82756 14.8585 2.81592 12.8338 2.81592 10.1615C2.81592 8.7342 3.27913 7.45129 4.26207 6.56564C5.11956 5.79303 6.25481 5.32275 7.4999 5.32275C10.1722 5.32272 12.3386 7.48911 12.3386 10.1615Z" fill="#FFE077"/>
<path d="M11.3709 10.161C11.3709 10.4964 11.0813 10.7893 10.9987 11.0987C10.9131 11.4187 11.0149 11.8167 10.8528 12.0969C10.6883 12.3812 10.2912 12.491 10.0605 12.7217C9.82983 12.9524 9.72005 13.3494 9.43581 13.5139C9.15559 13.676 8.75765 13.5741 8.43758 13.6597C8.12824 13.7424 7.83538 14.032 7.49996 14.032C7.16454 14.032 6.87169 13.7424 6.56235 13.6597C6.24231 13.5741 5.84434 13.676 5.56414 13.5139C5.27991 13.3494 5.1701 12.9523 4.93945 12.7217C4.70876 12.491 4.31165 12.3812 4.14717 12.0969C3.98501 11.8167 4.08685 11.4187 4.0013 11.0987C3.9186 10.7893 3.62903 10.4965 3.62903 10.161C3.62903 9.82559 3.91863 9.53271 4.0013 9.22333C4.08685 8.90326 3.98501 8.50529 4.14717 8.22507C4.31165 7.94083 4.70876 7.83103 4.93945 7.60034C5.17013 7.36966 5.27991 6.97257 5.56414 6.80812C5.84437 6.646 6.24231 6.74786 6.56235 6.66231C6.87169 6.57964 7.16454 6.29004 7.49996 6.29004C7.83538 6.29004 8.12824 6.57961 8.43758 6.66231C8.75762 6.74786 9.15559 6.64603 9.43581 6.80812C9.72005 6.97257 9.82986 7.36969 10.0605 7.60034C10.2912 7.83103 10.6883 7.94083 10.8528 8.22507C11.0149 8.50529 10.9131 8.90326 10.9987 9.22333C11.0813 9.53268 11.3709 9.82559 11.3709 10.161Z" fill="#FFEAA5"/>
<path d="M7.63313 7.74325L8.15534 9.35048H9.84527C9.98095 9.35048 10.0373 9.52409 9.9276 9.60384L8.5604 10.5972L8.96139 11.8312L7.04104 10.8991L5.54675 9.35048H6.84449L7.3667 7.74325C7.40869 7.61423 7.5912 7.61423 7.63313 7.74325Z" fill="#FFD05B"/>
<path d="M7.86286 14.637C5.19051 14.637 3.02416 12.4707 3.02416 9.79834C3.02416 8.55457 3.491 7.4226 4.26212 6.56543C3.2776 7.45116 2.66125 8.73267 2.66125 10.1612C2.66125 12.8336 4.82761 14.9999 7.49996 14.9999C8.92856 14.9999 10.2131 14.3802 11.0988 13.3957C10.2416 14.1668 9.10663 14.637 7.86286 14.637Z" fill="#FFD05B"/>
<path d="M5.5468 9.3501H5.1546C5.01893 9.3501 4.96253 9.52371 5.07228 9.60346L6.43947 10.5968L5.91726 12.204C5.87533 12.333 6.02302 12.4403 6.13276 12.3606L7.49996 11.3672L8.86716 12.3606C8.9769 12.4403 9.12459 12.333 9.08267 12.204L8.96144 11.8308L5.5468 9.3501Z" fill="#FFAA5A"/>
</svg>
