<svg width="35" height="35" viewBox="0 0 35 35" fill="none" xmlns="http://www.w3.org/2000/svg">
<g clip-path="url(#clip0_13_328)">
<path d="M19.3229 8.02083H5.46875C4.865 8.02083 4.375 7.53083 4.375 6.92708V4.01042C4.375 1.79813 6.17312 0 8.38541 0H16.4062C18.6185 0 20.4167 1.79813 20.4167 4.01042V6.92708C20.4167 7.53083 19.9267 8.02083 19.3229 8.02083Z" fill="#A36C22"/>
<path d="M20.7812 32.0833H4.01042C1.79813 32.0833 0 30.2851 0 28.0728V9.84367C0 7.63138 1.79813 5.83325 4.01042 5.83325H20.7812C22.9935 5.83325 24.7917 7.63138 24.7917 9.84367V28.0728C24.7917 30.2851 22.9935 32.0833 20.7812 32.0833Z" fill="#ECEFF1"/>
<path d="M10.5729 24.7917H0V13.125H10.5729C12.7852 13.125 14.5833 14.9231 14.5833 17.1354V20.7812C14.5833 22.9935 12.7852 24.7917 10.5729 24.7917Z" fill="#A36C22"/>
<path d="M12.3958 0H8.38541C6.17312 0 4.375 1.79813 4.375 4.01042V5.83333H12.3958V0Z" fill="#6F2205"/>
<path d="M12.3958 24.3526C11.849 24.6326 11.2292 24.7916 10.5729 24.7916H0V28.0728C0 30.2851 1.79813 32.0833 4.01042 32.0833H12.3958V24.3526ZM12.3958 5.83325H4.375H4.01042C1.79813 5.83325 0 7.63138 0 9.84367V13.1249H10.5729C11.2292 13.1249 11.849 13.2824 12.3958 13.5639V5.83325Z" fill="#CDD0D2"/>
<path d="M10.5729 13.125H0V24.7917H10.5729C11.2292 24.7917 11.849 24.6327 12.3958 24.3527V13.564C11.849 13.2825 11.2292 13.125 10.5729 13.125Z" fill="#6F2205"/>
<path d="M26.9791 17.5C22.5603 17.5 18.9583 21.1167 18.9583 25.55C18.9583 27.825 20.0374 30.0708 21.8749 31.6458V32.4479C21.8749 33.8479 23.027 35 24.427 35H29.5312C30.9312 35 32.0832 33.8479 32.0832 32.4479V31.6458C33.9207 30.0708 34.9999 27.825 34.9999 25.55C34.9999 21.1167 31.3978 17.5 26.9791 17.5Z" fill="#EACC97"/>
<path d="M28.4374 32.0833V35H25.5208V32.0833C25.5208 31.2812 26.177 30.625 26.9791 30.625C27.7812 30.625 28.4374 31.2812 28.4374 32.0833Z" fill="white"/>
<path d="M25.5208 23.6979C25.5208 24.7042 24.7042 25.5208 23.6979 25.5208C22.6917 25.5208 21.875 24.7042 21.875 23.6979C21.875 22.6917 22.6917 21.875 23.6979 21.875C24.7042 21.875 25.5208 22.6917 25.5208 23.6979Z" fill="white"/>
<path d="M30.2604 25.5208C31.2672 25.5208 32.0833 24.7047 32.0833 23.6979C32.0833 22.6911 31.2672 21.875 30.2604 21.875C29.2536 21.875 28.4375 22.6911 28.4375 23.6979C28.4375 24.7047 29.2536 25.5208 30.2604 25.5208Z" fill="white"/>
<path d="M23.6978 25.5208C22.6916 25.5208 21.8749 24.7042 21.8749 23.6979C21.8749 22.6917 22.6916 21.875 23.6978 21.875C24.7041 21.875 25.5207 22.6917 25.5207 23.6979C25.5207 24.7042 24.7041 25.5208 23.6978 25.5208ZM26.9791 17.5C22.5603 17.5 18.9583 21.1167 18.9583 25.55C18.9583 27.825 20.0374 30.0708 21.8749 31.6458V32.4479C21.8749 33.8479 23.027 35 24.427 35H26.9791H25.5207V32.0833C25.5207 31.2812 26.177 30.625 26.9791 30.625V17.5Z" fill="#A36C22"/>
<path d="M26.9791 30.625C26.177 30.625 25.5208 31.2812 25.5208 32.0833V35H26.9791V30.625Z" fill="#DEDEDE"/>
<path d="M23.6979 21.875C22.6917 21.875 21.875 22.6917 21.875 23.6979C21.875 24.7042 22.6917 25.5208 23.6979 25.5208C24.7042 25.5208 25.5208 24.7042 25.5208 23.6979C25.5208 22.6917 24.7042 21.875 23.6979 21.875Z" fill="#DEDEDE"/>
</g>
<defs>
<clipPath id="clip0_13_328">
<rect width="35" height="35" fill="white"/>
</clipPath>
</defs>
</svg>
