<svg width="18" height="18" viewBox="0 0 18 18" fill="none" xmlns="http://www.w3.org/2000/svg">
<g clip-path="url(#clip0_579_451)">
<path d="M6.62614 7.83985L9.56605 8.53528C11.7135 9.04332 13.9554 8.33162 15.4168 6.67797L17.6808 3.61175L17.0023 3.01216C16.7775 2.8135 16.4342 2.83466 16.2355 3.05948L14.1566 5.41189C13.0953 6.61283 11.4592 7.13219 9.89954 6.76326L6.95964 6.06784C6.24533 5.89888 5.50283 5.88699 4.7835 6.03307L0.435269 6.91605C0.141222 6.97575 -0.0487268 7.26252 0.0109686 7.55656L0.191144 8.44387L5.07175 7.81503C5.58204 7.71146 6.11947 7.72001 6.62614 7.83985Z" fill="#F7F9FA"/>
<path d="M17.8165 3.73173L17.6808 3.61182L15.2421 6.3713C13.8244 7.97555 11.6495 8.66602 9.56607 8.17316L6.62616 7.47773C6.11949 7.35789 5.58202 7.34934 5.07176 7.45291L0.191162 8.4439L0.227197 8.62137C0.286893 8.91541 0.573662 9.10536 0.867709 9.04567L5.21594 8.16275C5.62699 8.07929 6.05129 8.08608 6.45945 8.18262L9.39932 8.87804C11.7388 9.43144 14.1929 8.65237 15.7849 6.85097L17.8638 4.49856C18.0625 4.27374 18.0413 3.9304 17.8165 3.73173Z" fill="#DCE6EB"/>
<path d="M14.7404 9.69057C14.5904 9.69057 14.4688 9.56896 14.4688 9.41895V8.07359H9.32595V9.41895C9.32595 9.56896 9.20434 9.69057 9.05433 9.69057C8.90432 9.69057 8.78271 9.56896 8.78271 9.41895V5.79712C8.78271 5.04822 9.39197 4.43896 10.1409 4.43896H13.654C14.4029 4.43896 15.0121 5.04822 15.0121 5.79712V9.41895C15.012 9.56896 14.8904 9.69057 14.7404 9.69057ZM9.32595 7.53032H14.4688V5.79712C14.4688 5.34779 14.1033 4.98223 13.6539 4.98223H10.1408C9.6915 4.98223 9.32595 5.34779 9.32595 5.79712V7.53032Z" fill="#B9C3CD"/>
<path d="M16.8731 14.5811H16.1892C16.0391 14.5811 15.9175 14.4595 15.9175 14.3095V12.5999H2.0825V14.0379H2.49478C2.64479 14.0379 2.7664 14.1595 2.7664 14.3095C2.7664 14.4595 2.64479 14.5811 2.49478 14.5811H1.81089C1.66087 14.5811 1.53927 14.4595 1.53927 14.3095V12.5998H1.44874C1.29873 12.5998 1.17712 12.4782 1.17712 12.3282C1.17712 12.1782 1.29873 12.0566 1.44874 12.0566H1.53927V10.5055C1.53927 10.3555 1.66087 10.2339 1.81089 10.2339C1.9609 10.2339 2.0825 10.3555 2.0825 10.5055V12.0566H15.9175V10.5055C15.9175 10.3555 16.0391 10.2339 16.1891 10.2339C16.3391 10.2339 16.4607 10.3555 16.4607 10.5055V12.0566H16.5513C16.7013 12.0566 16.8229 12.1782 16.8229 12.3282C16.8229 12.4782 16.7013 12.5998 16.5513 12.5998H16.4607V14.0378H16.873C17.023 14.0378 17.1446 14.1594 17.1446 14.3094C17.1447 14.4595 17.0231 14.5811 16.8731 14.5811Z" fill="#B9C3CD"/>
<path d="M17.6378 10.5053L17.2756 9.05664H0.271617C0.121605 9.05664 0 9.17825 0 9.32826V10.1431L17.6378 10.5053Z" fill="#D79B8C"/>
<path d="M17.7284 9.05664H17.2757V9.87153C17.2757 10.0215 17.1541 10.1431 17.0041 10.1431H0V10.5959C0 10.7459 0.121605 10.8675 0.271617 10.8675H17.7283C17.8784 10.8675 18 10.7459 18 10.5959V9.32826C18 9.17825 17.8784 9.05664 17.7284 9.05664Z" fill="#C38778"/>
<path d="M1.81085 14.0379C1.81085 13.9556 1.69646 13.6171 1.50408 13.5297C1.4292 13.5071 1.34989 13.4946 1.26758 13.4946C0.817549 13.4946 0.452698 13.8595 0.452698 14.3095C0.452698 14.3918 0.465143 14.4711 0.487819 14.546C0.576342 14.7404 0.913667 14.8528 0.995932 14.8528C1.446 14.8527 1.81085 14.4879 1.81085 14.0379Z" fill="#5F6C75"/>
<path d="M1.50412 13.5293C1.52679 13.6042 1.53924 13.6835 1.53924 13.7658C1.53924 14.2158 1.17439 14.5807 0.72435 14.5807C0.642049 14.5807 0.562737 14.5682 0.487854 14.5456C0.589245 14.8802 0.89985 15.1239 1.26762 15.1239C1.71765 15.1239 2.08251 14.7591 2.08251 14.3091C2.08251 13.9413 1.8388 13.6307 1.50412 13.5293Z" fill="#4E5A61"/>
<path d="M16.1891 14.0379C16.1891 13.9556 16.0748 13.6171 15.8824 13.5297C15.8075 13.5071 15.7282 13.4946 15.6459 13.4946C15.1958 13.4946 14.831 13.8595 14.831 14.3095C14.831 14.3918 14.8434 14.4711 14.8661 14.546C14.9546 14.7404 15.292 14.8528 15.3742 14.8528C15.8243 14.8527 16.1891 14.4879 16.1891 14.0379Z" fill="#5F6C75"/>
<path d="M15.8824 13.5293C15.905 13.6042 15.9175 13.6835 15.9175 13.7658C15.9175 14.2158 15.5526 14.5807 15.1026 14.5807C15.0203 14.5807 14.941 14.5682 14.8661 14.5456C14.9675 14.8802 15.2781 15.1239 15.6459 15.1239C16.0959 15.1239 16.4607 14.7591 16.4607 14.3091C16.4607 13.9413 16.217 13.6307 15.8824 13.5293Z" fill="#4E5A61"/>
</g>
<defs>
<clipPath id="clip0_579_451">
<rect width="18" height="18" fill="white"/>
</clipPath>
</defs>
</svg>
