<svg width="18" height="18" viewBox="0 0 18 18" fill="none" xmlns="http://www.w3.org/2000/svg">
<g clip-path="url(#clip0_579_463)">
<path d="M16.7825 17.0934C16.7825 17.0934 16.7071 15.8269 15.8488 14.8917C15.6139 14.7282 15.3523 14.5972 15.0691 14.5073L12.6967 13.7539H5.3033L2.93085 14.5073C1.72475 14.8903 0.905431 16.01 0.905396 17.2755C0.905396 17.2755 1.61376 17.8007 15.6064 17.8007C15.9644 17.8007 16.7825 17.0934 16.7825 17.0934Z" fill="#94D8E6"/>
<path d="M15.8487 14.8921C16.1799 15.3677 16.3701 15.9426 16.3701 16.5515V17.1491C16.3701 17.2191 16.3133 17.2759 16.2433 17.2759H0.905396V17.2759V17.7286C0.905396 17.8786 1.027 18.0003 1.17701 18.0003H16.8229C16.9729 18.0003 17.0945 17.8786 17.0945 17.7286V17.2759C17.0945 16.3076 16.6144 15.425 15.8487 14.8921Z" fill="#7BD0E0"/>
<path d="M11.2591 14.5792V13.8664L6.74091 12.7954V14.5792L9.00226 15.998L11.2591 14.5792Z" fill="#EBAE9D"/>
<path d="M6.74091 10.958V12.796C7.03087 13.0381 7.35417 13.2716 7.70116 13.5282C8.63597 14.2194 9.10031 14.3623 9.72444 14.3623C10.2293 14.3623 10.6297 14.2686 11.2591 13.867V10.958H6.74091Z" fill="#E09380"/>
<path d="M13.4321 9.21992C13.7321 9.21992 14.5186 8.79583 14.5186 7.11887C14.5186 6.2884 14.2401 5.84424 13.8966 5.84424C13.5531 5.84424 13.4321 6.21032 13.4321 6.21032H4.56783C4.56783 6.21032 4.44689 5.84424 4.10334 5.84424C3.7598 5.84424 3.48132 6.28837 3.48132 7.11887C3.48132 8.79583 4.2678 9.21992 4.56783 9.21992H13.4321Z" fill="#E09380"/>
<path d="M13.1223 7.9625C13.1223 7.38854 13.199 5.6591 13.199 4.61348C7.73961 2.93301 4.56788 5.11196 4.56781 5.112V7.37733C6.55206 9.21972 11.044 8.6909 13.1223 7.9625Z" fill="#EBAE9D"/>
<path d="M12.7077 7.6762L12.9732 8.07311L13.4321 7.37713C13.4321 6.80313 13.4321 5.93709 13.4321 5.1118L13.0699 4.54297L12.7077 4.89541V7.6762Z" fill="#E09380"/>
<path d="M7.25032 6.83425C7.1003 6.83425 6.9787 6.71265 6.9787 6.56264V5.9557C6.9787 5.80565 7.1003 5.68408 7.25032 5.68408C7.40033 5.68408 7.52193 5.80569 7.52193 5.9557V6.56264C7.52197 6.71268 7.40036 6.83425 7.25032 6.83425Z" fill="#784132"/>
<path d="M10.7496 6.83425C10.5996 6.83425 10.478 6.71265 10.478 6.56264V5.9557C10.478 5.80565 10.5996 5.68408 10.7496 5.68408C10.8996 5.68408 11.0212 5.80569 11.0212 5.9557V6.56264C11.0212 6.71268 10.8996 6.83425 10.7496 6.83425Z" fill="#784132"/>
<path d="M9.80836 5.41977C9.7358 5.41977 9.66341 5.39087 9.60994 5.33367C9.50746 5.22409 9.51319 5.05221 9.62277 4.94973C10.2273 4.38428 11.4712 4.08661 12.3594 4.54452C12.4927 4.61328 12.5451 4.77711 12.4763 4.91039C12.4076 5.04381 12.2438 5.09623 12.1104 5.02735C11.436 4.67969 10.4537 4.91647 9.99385 5.34647C9.94147 5.39551 9.87484 5.41977 9.80836 5.41977Z" fill="#D47F6C"/>
<path d="M8.19161 5.42018C8.12513 5.42018 8.05851 5.39592 8.00613 5.34695C7.54635 4.91695 6.56402 4.68003 5.88958 5.02783C5.75623 5.09657 5.59244 5.04422 5.52367 4.91087C5.45491 4.77756 5.50729 4.61373 5.6406 4.545C6.52879 4.08709 7.77265 4.38479 8.3772 4.95021C8.48678 5.05266 8.49251 5.22457 8.39003 5.33415C8.33656 5.39128 8.26417 5.42018 8.19161 5.42018Z" fill="#D47F6C"/>
<path d="M13.1223 8.12843L12.7077 7.6399C10.6294 8.36826 10.0445 7.34082 8.99996 7.34082C7.84314 7.34082 7.26349 8.60142 4.56781 7.34082V8.03825C4.56781 10.3875 5.58059 11.0468 6.97668 12.079C7.91149 12.7702 8.37583 12.913 8.99996 12.913C9.62409 12.913 10.5553 12.3611 11.0212 11.9144C11.8561 11.114 13.1223 10.4777 13.1223 8.12843Z" fill="#BAE6EF"/>
<path d="M13.4321 7.34082C13.1717 7.4632 12.9312 7.56157 12.7077 7.6399V8.03829C12.7077 10.3875 11.496 11.2786 10.6611 12.079C10.1952 12.5256 9.62409 12.913 9 12.913C9.62409 12.913 10.0884 12.7702 11.0233 12.079C12.4194 11.0468 13.4321 10.3875 13.4321 8.03825V7.34082Z" fill="#94D8E6"/>
<path d="M13.0699 4.46048C13.0699 3.92516 13.0073 2.72127 13.0073 2.6492C13.0073 1.82215 12.3253 1.00621 11.2186 0.40609C10.566 0.151734 9.80831 0 8.99996 0C6.55217 0 4.56781 1.39046 4.56781 2.81271V4.02532C4.56792 4.02532 8.89199 3.3519 13.0699 4.46048Z" fill="#BAE6EF"/>
<path d="M12.7077 2.81287V4.28978L13.4321 4.02552C13.4321 3.38033 13.4321 2.89436 13.4321 2.81291C13.4321 1.86035 12.5419 0.922098 11.2186 0.40625C12.159 1.04711 12.7077 1.98582 12.7077 2.81287Z" fill="#94D8E6"/>
<path d="M12.7077 4.89556L13.0699 4.46043L12.7077 3.80895C8.52978 2.70037 4.56792 4.0253 4.56781 4.0253V5.11191C4.56792 5.11188 8.52978 3.78698 12.7077 4.89556Z" fill="#DCF2F6"/>
<path d="M12.7077 4.8952C12.9487 4.95915 13.1904 5.0307 13.4321 5.11155C13.4321 4.72941 13.4321 4.35622 13.4321 4.02495C13.1904 3.94409 12.9487 3.87251 12.7077 3.80859V4.8952Z" fill="#BAE6EF"/>
<path d="M10.3742 14.2854L9.39381 15.2194L9.41968 15.7217L9.00002 15.5945L6.37825 13.0969C6.2739 12.9975 6.11004 12.9969 6.00499 13.0956L5.30334 13.7543L8.81268 17.0974C8.91758 17.1973 9.08247 17.1973 9.18737 17.0974L9.88245 16.4352L9.78186 16.0072L10.2762 16.06L12.6966 13.7543L12.144 13.2354L10.3742 14.2854Z" fill="#7BD0E0"/>
<path d="M11.6218 13.0969L10.3742 14.2854C10.7499 14.185 11.1538 13.9673 11.7477 13.5283C11.8836 13.4278 12.0159 13.3308 12.144 13.2354L11.9951 13.0956C11.8899 12.9969 11.7261 12.9975 11.6218 13.0969Z" fill="#70C6DB"/>
<path d="M9.88246 16.435L9 15.5944L9.39382 15.2192L10.2762 16.0599L9.88246 16.435Z" fill="#70C6DB"/>
</g>
<defs>
<clipPath id="clip0_579_463">
<rect width="18" height="18" fill="white"/>
</clipPath>
</defs>
</svg>
