<svg width="14" height="14" viewBox="0 0 14 14" fill="none" xmlns="http://www.w3.org/2000/svg">
<g clip-path="url(#clip0_579_486)">
<path d="M3.14453 3.14453H13.5898V13.5898H3.14453V3.14453Z" fill="#73BCFF"/>
<path d="M7 3.14453H13.5898V13.5898H7V3.14453Z" fill="#7984EB"/>
<path d="M12.1948 10.5821C12.0577 10.5821 11.9297 10.6505 11.8536 10.7645L11.6473 11.0736L10.8936 9.94421C10.7312 9.70084 10.3735 9.7009 10.2112 9.94431L9.4585 11.073L8.7065 9.94445C8.54416 9.70082 8.18614 9.70082 8.02383 9.94448L7.2721 11.0728L6.52014 9.94445C6.3578 9.70084 5.99985 9.70084 5.83751 9.94445L5.08553 11.0729L4.88018 10.7648C4.80411 10.6506 4.67603 10.5821 4.53887 10.5821H3.14453V11.4024H4.3193L4.7442 12.04C4.90654 12.2836 5.26449 12.2836 5.42683 12.04L6.17881 10.9115L6.93082 12.04C7.09319 12.2836 7.45114 12.2836 7.61348 12.0399L8.36519 10.9116L9.11704 12.04C9.27935 12.2835 9.6372 12.2836 9.79959 12.0401L10.5526 10.911L11.3062 12.0402C11.4685 12.2835 11.8261 12.2835 11.9885 12.0402L12.4141 11.4024H13.5898V10.5821H12.1948Z" fill="#FFF261"/>
<path d="M11.8536 5.56921L11.6473 5.8783L10.8936 4.74889C10.7312 4.50553 10.3735 4.50559 10.2112 4.749L9.4585 5.87773L8.7065 4.74914C8.54416 4.5055 8.18617 4.5055 8.02383 4.74917L7.2721 5.87751L6.52014 4.74914C6.3578 4.50553 5.99985 4.50553 5.83751 4.74914L5.08553 5.87759L4.88018 5.56945C4.80411 5.45532 4.67603 5.38674 4.53887 5.38674H3.14453V6.20706H4.3193L4.7442 6.84466C4.90654 7.08827 5.26449 7.08827 5.42683 6.84466L6.17881 5.71621L6.93082 6.84466C7.09319 7.08829 7.45114 7.08827 7.61348 6.84461L8.36519 5.71629L9.11704 6.84463C9.27932 7.08821 9.6372 7.08827 9.79959 6.84477L10.5526 5.71563L11.3062 6.84488C11.4685 7.08819 11.8261 7.08819 11.9885 6.84488L12.4141 6.20706H13.5898V5.38674H12.1948C12.0577 5.38674 11.9297 5.45521 11.8536 5.56921Z" fill="#FFF261"/>
<path d="M7.61348 12.0399L8.36519 10.9116L9.11704 12.04C9.27935 12.2835 9.6372 12.2836 9.79959 12.0401L10.5526 10.911L11.3062 12.0402C11.4685 12.2835 11.8261 12.2835 11.9885 12.0402L12.4141 11.4024H13.5898V10.5821H12.1948C12.0577 10.5821 11.9297 10.6505 11.8536 10.7645L11.6473 11.0736L10.8936 9.9442C10.7312 9.70084 10.3735 9.7009 10.2112 9.94431L9.4585 11.073L8.7065 9.94445C8.54416 9.70082 8.18614 9.70082 8.02383 9.94448L7.2721 11.0728L7 10.6645V12.1198C7.17948 12.2798 7.47141 12.2532 7.61348 12.0399Z" fill="#FFF261"/>
<path d="M7.61348 6.84462L8.36519 5.71631L9.11704 6.84465C9.27932 7.08822 9.6372 7.08828 9.79959 6.84478L10.5526 5.71565L11.3062 6.84489C11.4685 7.0882 11.8261 7.0882 11.9885 6.84489L12.4141 6.20705H13.5898V5.38674H12.1948C12.0577 5.38674 11.9297 5.45521 11.8536 5.5692L11.6473 5.87829L10.8936 4.74889C10.7312 4.50553 10.3735 4.50559 10.2112 4.749L9.4585 5.87772L8.7065 4.74914C8.54416 4.50551 8.18617 4.5055 8.02383 4.74916L7.2721 5.8775L7 5.46923V6.92449C7.17948 7.08448 7.47141 7.05784 7.61348 6.84462Z" fill="#FFF261"/>
<path d="M13.5898 3.14453H13.1797V7.98438H2.73438V8.80469H13.1797V13.1797H3.14453V13.5898C3.14453 13.8164 3.32817 14 3.55469 14H13.5898C13.8164 14 14 13.8164 14 13.5898V3.55469C14 3.32817 13.8164 3.14453 13.5898 3.14453Z" fill="#DDEBF0"/>
<path d="M13.5898 3.14453H13.1797V7.98438H7V8.80469H13.1797V13.1797H7V14H13.5898C13.8164 14 14 13.8164 14 13.5898V3.55469C14 3.32817 13.8164 3.14453 13.5898 3.14453Z" fill="#A7D2D7"/>
<path d="M0 13.5898C0 13.8164 0.183641 14 0.410156 14H3.55469V3.55469L1.72266 3.00781L0 3.55469V13.5898Z" fill="#FFF4F4"/>
<path d="M13.5898 0H0.410156C0.183641 0 0 0.183641 0 0.410156V3.55469H14V0.410156C14 0.183641 13.8164 0 13.5898 0Z" fill="#0040A0"/>
<path d="M14 3.55469V0.410156C14 0.183641 13.8164 0 13.5898 0H7V3.55469H14Z" fill="#00317E"/>
<path d="M2.1875 2.1875H1.64062C1.41411 2.1875 1.23047 2.00386 1.23047 1.77734C1.23047 1.55083 1.41411 1.36719 1.64062 1.36719H2.1875C2.41402 1.36719 2.59766 1.55083 2.59766 1.77734C2.59766 2.00386 2.41402 2.1875 2.1875 2.1875Z" fill="#FF6C6C"/>
<path d="M4.375 2.1875H3.82812C3.60161 2.1875 3.41797 2.00386 3.41797 1.77734C3.41797 1.55083 3.60161 1.36719 3.82812 1.36719H4.375C4.60152 1.36719 4.78516 1.55083 4.78516 1.77734C4.78516 2.00386 4.60152 2.1875 4.375 2.1875Z" fill="#73BCFF"/>
<path d="M6.5625 2.1875H6.01562C5.78911 2.1875 5.60547 2.00386 5.60547 1.77734C5.60547 1.55083 5.78911 1.36719 6.01562 1.36719H6.5625C6.78902 1.36719 6.97266 1.55083 6.97266 1.77734C6.97266 2.00386 6.78902 2.1875 6.5625 2.1875Z" fill="#FFF261"/>
</g>
<defs>
<clipPath id="clip0_579_486">
<rect width="14" height="14" fill="white"/>
</clipPath>
</defs>
</svg>
