<svg width="15" height="15" viewBox="0 0 15 15" fill="none" xmlns="http://www.w3.org/2000/svg">
<g clip-path="url(#clip0_579_503)">
<path d="M10.7676 0V11.0321C10.7676 12.1923 9.82713 13.1328 8.667 13.1328L7.7334 14.0664L8.667 15C10.8584 15 12.6349 13.2235 12.6349 11.0321V0L10.7676 0Z" fill="#FFC40F"/>
<path d="M2.36513 0H0.497925V3.47856L1.43153 4.41217L2.36513 3.47856V0Z" fill="#46C7C2"/>
<path d="M6.56639 11.0321V5.41187L6.90832 4.30561C6.99111 4.03772 7.03321 3.75894 7.03321 3.47856V0H4.23237V3.47856C4.23237 3.75894 4.27447 4.03775 4.35726 4.30561L4.69918 5.41187V7.27907C3.41015 7.27907 2.36516 6.23408 2.36516 4.94505V3.47853H0.497925V4.94505C0.497925 7.26533 2.37887 9.14628 4.69915 9.14628V11.0321C4.69915 13.2235 6.47563 14.9999 8.66701 15V13.1328C7.50688 13.1328 6.56639 12.1923 6.56639 11.0321Z" fill="#FFD959"/>
<path d="M12.6349 2.02637H10.7675C9.67975 2.41089 8.90039 3.44832 8.90039 4.6678C8.90039 5.88729 9.67975 6.92472 10.7675 7.30924H12.6349C13.7227 6.92472 14.502 5.88729 14.502 4.6678C14.502 3.44832 13.7227 2.41089 12.6349 2.02637Z" fill="#FFF7E0"/>
<path d="M10.7676 7.30923C11.0597 7.41247 11.3739 7.46881 11.7012 7.46881C12.0286 7.46881 12.3428 7.41244 12.6348 7.30923V2.02677C12.3428 1.92353 12.0286 1.86719 11.7012 1.86719C11.3739 1.86719 11.0597 1.92355 10.7676 2.02677V7.30923Z" fill="#FFEAA6"/>
</g>
<defs>
<clipPath id="clip0_579_503">
<rect width="15" height="15" fill="white"/>
</clipPath>
</defs>
</svg>
