<svg width="48" height="48" viewBox="0 0 48 48" fill="none" xmlns="http://www.w3.org/2000/svg">
<g clip-path="url(#clip0_9_226)">
<path d="M24 48C37.2548 48 48 37.2548 48 24C48 10.7452 37.2548 0 24 0C10.7452 0 0 10.7452 0 24C0 37.2548 10.7452 48 24 48Z" fill="#A36C22"/>
<path d="M24 0C23.5715 0 23.1458 0.0117188 22.7229 0.0338437C35.384 0.697781 45.4459 11.1736 45.4459 24C45.4459 36.8264 35.384 47.3022 22.7229 47.9662C23.1458 47.9883 23.5715 48 24 48C37.2548 48 48 37.2548 48 24C48 10.7452 37.2548 0 24 0Z" fill="#82561A"/>
<path d="M24 42.7019C34.3288 42.7019 42.7019 34.3288 42.7019 24C42.7019 13.6712 34.3288 5.2981 24 5.2981C13.6712 5.2981 5.2981 13.6712 5.2981 24C5.2981 34.3288 13.6712 42.7019 24 42.7019Z" fill="#F4FBFF"/>
<path d="M24 5.2981C23.482 5.2981 22.9693 5.32013 22.462 5.36138C32.0713 6.14363 39.6261 14.1892 39.6261 24C39.6261 33.8108 32.0713 41.8563 22.462 42.6386C22.9693 42.68 23.482 42.702 24 42.702C34.3288 42.702 42.7019 34.3288 42.7019 24.0001C42.7019 13.6714 34.3288 5.2981 24 5.2981Z" fill="#DAF1F4"/>
<path d="M24.0001 11.0541C23.6 11.0541 23.2758 10.7299 23.2758 10.3298V9.2667C23.2758 8.86667 23.6 8.54239 24.0001 8.54239C24.4001 8.54239 24.7245 8.86667 24.7245 9.2667V10.3298C24.7245 10.7299 24.4001 11.0541 24.0001 11.0541Z" fill="#2B4D66"/>
<path d="M33.6268 15.0744C33.4414 15.0744 33.2561 15.0037 33.1146 14.8623C32.8317 14.5793 32.8317 14.1208 33.1147 13.8379L33.8665 13.0862C34.1493 12.8033 34.6079 12.8033 34.8909 13.0862C35.1737 13.3691 35.1737 13.8277 34.8908 14.1106L34.139 14.8624C33.9975 15.0037 33.8122 15.0744 33.6268 15.0744Z" fill="#2B4D66"/>
<path d="M38.6546 24.7244H37.5915C37.1914 24.7244 36.8672 24.4001 36.8672 24.0001C36.8672 23.6 37.1915 23.2758 37.5915 23.2758H38.6546C39.0548 23.2758 39.3789 23.6 39.3789 24.0001C39.3789 24.4001 39.0547 24.7244 38.6546 24.7244Z" fill="#2B4D66"/>
<path d="M34.3227 35.1031C34.1374 35.1031 33.952 35.0323 33.8105 34.8909L33.0588 34.1392C32.776 33.8563 32.776 33.3978 33.0588 33.1147C33.3417 32.832 33.8003 32.832 34.0833 33.1147L34.835 33.8664C35.1178 34.1494 35.1178 34.6079 34.835 34.8909C34.6935 35.0323 34.5081 35.1031 34.3227 35.1031Z" fill="#2B4D66"/>
<path d="M23.9211 39.379C23.5211 39.379 23.1968 39.0547 23.1968 38.6547V37.5916C23.1968 37.1915 23.5211 36.8673 23.9211 36.8673C24.3211 36.8673 24.6454 37.1916 24.6454 37.5916V38.6547C24.6454 39.0547 24.3211 39.379 23.9211 39.379Z" fill="#2B4D66"/>
<path d="M13.5424 35.0472C13.3571 35.0472 13.1717 34.9764 13.0303 34.835C12.7473 34.5521 12.7474 34.0935 13.0303 33.8105L13.7821 33.0589C14.065 32.7761 14.5235 32.776 14.8065 33.059C15.0893 33.3418 15.0893 33.8004 14.8064 34.0834L14.0546 34.8351C13.9132 34.9765 13.7278 35.0472 13.5424 35.0472Z" fill="#2B4D66"/>
<path d="M10.3297 24.6456H9.26655C8.86652 24.6456 8.54224 24.3213 8.54224 23.9212C8.54224 23.5212 8.86652 23.1969 9.26655 23.1969H10.3297C10.7297 23.1969 11.054 23.5212 11.054 23.9212C11.0541 24.3213 10.7297 24.6456 10.3297 24.6456Z" fill="#2B4D66"/>
<path d="M14.3501 15.0186C14.1648 15.0186 13.9795 14.948 13.838 14.8065L13.0862 14.0548C12.8034 13.7719 12.8033 13.3133 13.0861 13.0304C13.369 12.7475 13.8276 12.7474 14.1105 13.0303L14.8623 13.7821C15.1451 14.0649 15.1452 14.5235 14.8624 14.8065C14.7208 14.9479 14.5355 15.0186 14.3501 15.0186Z" fill="#2B4D66"/>
<path d="M24 24.7244H17.8481C17.4481 24.7244 17.1238 24.4001 17.1238 24C17.1238 23.6 17.4481 23.2757 17.8481 23.2757H23.2756V14.0604C23.2756 13.6603 23.5999 13.3361 23.9999 13.3361C24.3999 13.3361 24.7242 13.6603 24.7242 14.0604V24C24.7243 24.4001 24.4 24.7244 24 24.7244Z" fill="#93B0D0"/>
<path d="M31.4312 28.546C31.3196 28.546 31.2065 28.5202 31.1005 28.4657L23.6688 24.6441C23.313 24.4612 23.1729 24.0245 23.3558 23.6687C23.5387 23.3129 23.9754 23.1728 24.3313 23.3558L31.763 27.1773C32.1188 27.3603 32.259 27.797 32.076 28.1527C31.9474 28.4025 31.6939 28.546 31.4312 28.546Z" fill="#DA4A54"/>
<path d="M24 25.9333C25.0677 25.9333 25.9333 25.0678 25.9333 24C25.9333 22.9323 25.0677 22.0667 24 22.0667C22.9322 22.0667 22.0667 22.9323 22.0667 24C22.0667 25.0678 22.9322 25.9333 24 25.9333Z" fill="#365E7D"/>
</g>
<defs>
<clipPath id="clip0_9_226">
<rect width="48" height="48" fill="white"/>
</clipPath>
</defs>
</svg>
