<svg width="48" height="48" viewBox="0 0 48 48" fill="none" xmlns="http://www.w3.org/2000/svg">
<g clip-path="url(#clip0_9_135)">
<path d="M19.2471 29.6561L14.147 29.9851C14.147 29.9851 5.09829 18.6693 11.9719 6.67511C17.0386 -2.16349 26.1956 -0.236578 30.6623 1.38774C30.6623 1.38774 35.6442 0.91945 36.5222 8.59497C37.4002 16.2705 34.8768 25.7624 29.3378 30.7524L19.2471 29.6561Z" fill="#414451"/>
<path d="M30.907 36.0368L27.8756 41.8106L22.0222 42.5083L16.9414 40.3848L16.2835 35.3398L17.5648 31.6522L17.9289 30.564C18.2043 30.2624 18.3912 29.8904 18.4686 29.4893C18.5334 29.2415 18.5803 28.9893 18.6091 28.7348C18.6354 28.5288 18.6571 28.318 18.6676 28.0986C18.7264 26.8801 18.6794 25.6588 18.5271 24.4484C18.5271 24.4484 29.8827 19.219 29.3682 24.4484C28.8537 29.6778 29.8681 30.2486 29.8681 30.2486L30.907 36.0368Z" fill="#F5BE9A"/>
<path d="M16.8998 35.8542C16.8998 35.8542 22.6636 38.7089 31.3922 35.8542V48H18.9309L16.8998 35.8542Z" fill="#69B0EE"/>
<path d="M27.8387 7.95758C27.8387 7.95758 27.5097 9.34658 25.3159 9.74935C24.2961 9.96126 23.2958 10.2587 22.326 10.6385C19.8059 11.5574 17.7591 13.4476 16.6429 15.8866C15.7875 17.8668 15.4625 20.0357 15.6999 22.1796C15.6999 22.1796 19.4666 28.5411 24 28.5042C28.5335 28.4673 32.3703 22.3986 33.0307 20.3516C33.0307 20.3516 34.237 20.4429 34.8406 18.6331C35.1367 17.8179 35.2824 16.9558 35.2708 16.0887C35.2648 15.8658 35.1837 15.6515 35.0407 15.4805C34.5884 15.0077 33.8995 14.847 33.2847 15.0708C33.2847 15.0706 29.1913 13.4416 27.8387 7.95758Z" fill="#F5BE9A"/>
<path d="M29.8733 30.2462L25.7759 48H41.5673C42.612 48 43.4591 47.1531 43.4591 46.1082V40.9086C43.459 36.3025 39.8631 32.4976 35.2644 32.2374L33.1694 32.1204C31.9871 32.0534 30.8875 31.4922 30.1397 30.5739L29.8733 30.2462Z" fill="#EEEFEE"/>
<path d="M18.1402 30.3058L22.2271 48H6.43281C5.38802 48 4.54095 47.1531 4.54095 46.1082V40.9086C4.54105 36.3025 8.13693 32.4976 12.7357 32.2374L14.8306 32.1204C16.013 32.0534 17.1125 31.4922 17.8603 30.5739L18.1402 30.3058Z" fill="#EEEFEE"/>
<path d="M35.18 34.0233C32.8193 34.0233 30.9655 37.156 30.9655 41.1568C30.9285 42.8857 31.33 44.5958 32.1327 46.1275C32.3443 46.5056 32.5997 46.8574 32.8937 47.1758C33.2193 47.1667 33.5063 46.9596 33.6177 46.6536C33.3152 46.3374 33.0591 45.9799 32.8567 45.5918C32.1619 44.2184 31.814 42.6956 31.8435 41.1567C31.8435 37.7653 33.3701 34.9006 35.18 34.9006C36.9899 34.9006 38.5164 37.7653 38.5164 41.1567C38.5429 42.6974 38.1935 44.2212 37.4985 45.5965C37.3083 45.9608 37.0692 46.2973 36.7879 46.5968C36.8726 46.9123 37.1465 47.1405 37.4721 47.1669C37.7795 46.8286 38.0461 46.4553 38.2664 46.0548C39.0414 44.5404 39.429 42.8575 39.3943 41.1567C39.3944 37.1561 37.5418 34.0233 35.18 34.0233Z" fill="#BBBBCD"/>
<path d="M38.3361 46.3822C38.3349 46.8203 37.98 47.1752 37.5418 47.1764C37.518 47.1779 37.4943 47.1749 37.4716 47.1676C37.146 47.1412 36.8721 46.913 36.7874 46.5975C36.7623 46.5287 36.7504 46.4559 36.7523 46.3826C36.7502 45.9633 37.0791 45.6169 37.498 45.5971C37.5124 45.5935 37.5272 45.5922 37.5418 45.593C37.9786 45.591 38.3342 45.9435 38.3361 46.3802V46.3825V46.3822Z" fill="#575B6D"/>
<path d="M33.6721 46.3822C33.6729 46.4755 33.6549 46.568 33.6194 46.6543C33.508 46.9603 33.2209 47.1673 32.8953 47.1765H32.8778C32.4407 47.1745 32.0875 46.8193 32.0882 46.3822C32.0869 46.2953 32.1018 46.2089 32.1321 46.1276C32.2368 45.8128 32.5286 45.5985 32.8603 45.5926H32.8778C33.3149 45.5919 33.6702 45.945 33.6721 46.3822Z" fill="#575B6D"/>
<path d="M35.18 34.9025C34.984 34.9021 34.812 34.772 34.7585 34.5834C34.4347 33.6134 33.822 32.7655 33.0024 32.1537C32.8039 32.0148 32.7556 31.7414 32.8944 31.5429C33.0333 31.3444 33.3067 31.296 33.5052 31.4349C34.4922 32.1602 35.2257 33.1782 35.6013 34.344C35.6669 34.5778 35.5306 34.8204 35.297 34.886C35.2585 34.8968 35.2187 34.9024 35.1788 34.9024H35.18V34.9025Z" fill="#BBBBCD"/>
<path d="M18.6734 28.0985C18.66 28.318 18.6382 28.5287 18.6148 28.7347C18.586 28.9893 18.5391 29.2414 18.4743 29.4893C17.7134 30.0992 12.9593 34.2405 13.2186 42.4932C13.2268 42.7365 13.0363 42.9406 12.793 42.9491H12.7796C12.5425 42.9486 12.3484 42.7605 12.3406 42.5236C12.1171 36.9965 14.4533 31.6748 18.6734 28.0985Z" fill="#BBBBCD"/>
<path d="M12.693 46.4366C13.9049 46.4366 14.8874 45.4541 14.8874 44.2421C14.8874 43.0302 13.9049 42.0477 12.693 42.0477C11.481 42.0477 10.4985 43.0302 10.4985 44.2421C10.4985 45.4541 11.481 46.4366 12.693 46.4366Z" fill="#575B6D"/>
<path d="M12.6935 45.4369C13.3534 45.4369 13.8883 44.902 13.8883 44.2422C13.8883 43.5823 13.3534 43.0475 12.6935 43.0475C12.0337 43.0475 11.4988 43.5823 11.4988 44.2422C11.4988 44.902 12.0337 45.4369 12.6935 45.4369Z" fill="#BBBBCD"/>
</g>
<defs>
<clipPath id="clip0_9_135">
<rect width="48" height="48" fill="white"/>
</clipPath>
</defs>
</svg>
