<svg width="48" height="48" viewBox="0 0 48 48" fill="none" xmlns="http://www.w3.org/2000/svg">
<g clip-path="url(#clip0_9_204)">
<path d="M38.7369 48V35.3684C38.7378 31.1661 35.6403 27.6065 31.4779 27.0267H15.6802C11.5178 27.6065 8.42032 31.1661 8.42114 35.3684V48H38.7369Z" fill="#69B0EE"/>
<path d="M19.3684 29.0991H27.7895V48H19.3684V29.0991Z" fill="#EEEFEE"/>
<path d="M19.3684 26.021H27.7895V33.5999C26.6817 34.7327 25.1632 35.3705 23.5789 35.3684C21.9946 35.3705 20.4761 34.7327 19.3684 33.5999V26.021Z" fill="#F5BE9A"/>
<path d="M19.3684 30.7706C20.2183 31.0239 21.1003 31.1542 21.9872 31.1579H25.1706C26.0576 31.1542 26.9395 31.0239 27.7895 30.7706V26.021H19.3684V30.7706Z" fill="#EC917F"/>
<path d="M15 19H12.5C11.1194 19 10 17.4329 10 15.5C10 13.5671 11.1194 12 12.5 12H15V19Z" fill="#F5BE9A"/>
<path d="M25.1707 29.4737H21.9873C19.2562 29.4737 16.6612 28.2804 14.8841 26.2064C13.4305 24.5107 12.6316 22.3512 12.6316 20.118V10.9474C12.6316 4.90132 17.5329 0 23.579 0C29.625 0 34.5263 4.90132 34.5263 10.9474V20.118C34.5263 22.3512 33.7274 24.5107 32.2739 26.2064C30.4967 28.2804 27.9017 29.4737 25.1707 29.4737Z" fill="#F5BE9A"/>
<path d="M6.73682 41.2632H13.4737V44.6316H6.73682V41.2632Z" fill="#519CDE"/>
<path d="M30.2233 29.4737H27.0399C24.3088 29.4737 21.7138 28.2804 19.9367 26.2064C18.4831 24.5107 17.6842 22.3512 17.6842 20.118V10.9474C17.6842 4.90132 22.5855 0 28.6316 0C34.6776 0 39.5789 4.90132 39.5789 10.9474V20.118C39.5789 22.3512 38.78 24.5107 37.3265 26.2064C35.5493 28.2804 32.9544 29.4737 30.2233 29.4737Z" fill="#A36C22"/>
<path d="M29.4737 21.0526H27.7895V17.6842C27.7895 17.2192 28.1665 16.8421 28.6316 16.8421C30.537 16.8413 32.2048 15.5609 32.6974 13.7204C33.19 11.8795 32.3849 9.93709 30.7348 8.98479C29.0843 8.03248 26.9996 8.30715 25.6526 9.6546C24.3051 11.0021 24.0308 13.0868 24.9836 14.7368L23.5267 15.5789C22.2323 13.3359 22.553 10.5111 24.3174 8.61554C26.0822 6.71998 28.8771 6.19819 31.2068 7.32936C33.5366 8.46053 34.8549 10.9799 34.4568 13.5387C34.0584 16.0975 32.037 18.0966 29.4737 18.4667V21.0526Z" fill="#EACC97"/>
<path d="M27.7896 22.7368H29.4738V24.4211H27.7896V22.7368Z" fill="#EACC97"/>
<path d="M8.42114 44.6316H13.4738V48H8.42114V44.6316Z" fill="#F5BE9A"/>
<path d="M40.421 44.6316H33.6842V41.2632H40.421V44.6316Z" fill="#519CDE"/>
<path d="M38.7368 48H33.6842V44.6316H38.7368V48Z" fill="#F5BE9A"/>
<path d="M12.6316 36.2105H14.3158V48H12.6316V36.2105Z" fill="#519DDE"/>
<path d="M32.842 36.2105H34.5262V48H32.842V36.2105Z" fill="#519DDE"/>
<path d="M19.3685 37.8948L15.158 32.8421L19.3685 30.7833V37.8948Z" fill="#519DDE"/>
<path d="M27.7894 37.8948L32 32.8421L27.7894 30.7833V37.8948Z" fill="#519DDE"/>
</g>
<defs>
<clipPath id="clip0_9_204">
<rect width="48" height="48" fill="white"/>
</clipPath>
</defs>
</svg>
