<svg width="77" height="77" viewBox="0 0 77 77" fill="none" xmlns="http://www.w3.org/2000/svg">
<g clip-path="url(#clip0_9_291)">
<path d="M8.67297 38.998H68.3272V48.1269H8.67297V38.998Z" fill="#F69583"/>
<path d="M32.7753 71.9559H16.8739C16.0182 71.9559 15.3246 71.2623 15.3246 70.4066V51.0784H34.3246V70.4066C34.3246 71.2623 33.631 71.9559 32.7753 71.9559Z" fill="#FFCEC0"/>
<path d="M60.1263 71.9559H44.2249C43.3691 71.9559 42.6755 71.2623 42.6755 70.4066V51.0784H61.6756V70.4066C61.6756 71.2623 60.982 71.9559 60.1263 71.9559Z" fill="#FFCEC0"/>
<path d="M11.735 41.0588L7.3254 28.9434C6.61209 26.9836 4.44526 25.9733 2.48567 26.6865C0.525935 27.3999 -0.48454 29.5667 0.228763 31.5265L4.63837 43.642L11.735 41.0588Z" fill="#FDB0A0"/>
<path d="M7.32562 28.9439L11.7351 41.0589L7.01972 42.7752L2.61027 30.6602C2.22647 29.6058 1.42143 28.8256 0.455322 28.4421C0.878221 27.656 1.5813 27.0162 2.48575 26.687C4.44594 25.9735 6.61216 26.9837 7.32562 28.9439Z" fill="#F69583"/>
<path d="M72.3615 43.6418L76.7711 31.5264C77.4844 29.5666 76.4739 27.3998 74.5143 26.6867C72.5546 25.9733 70.3878 26.9838 69.6746 28.9434L65.265 41.0589L72.3615 43.6418Z" fill="#FDB0A0"/>
<path d="M76.7713 31.5269L72.3618 43.642L68.8134 42.3504L73.2228 30.2354C73.7011 28.9213 73.4045 27.5147 72.5668 26.5173C73.1992 26.4045 73.868 26.4519 74.5142 26.6871C76.4732 27.4001 77.4847 29.5667 76.7713 31.5269Z" fill="#F69583"/>
<path d="M67.2006 39.6703C75.1078 31.7433 75.1022 18.9076 67.1827 10.988C59.593 3.39838 47.4881 3.07714 39.5156 10.0232C38.9358 10.5284 38.0639 10.5284 37.4841 10.0232C29.5118 3.07699 17.4067 3.39823 9.81706 10.988C1.89764 18.9074 1.89208 31.7433 9.79916 39.6703L37.5145 67.3864C38.0586 67.9305 38.941 67.9305 39.4851 67.3864L67.2006 39.6703Z" fill="#FB4A59"/>
<path d="M67.201 39.67L39.4858 67.3867C38.9417 67.9308 38.0582 67.9308 37.5142 67.3867L34.0498 63.9207L60.5235 37.4472C68.4305 29.5201 68.4241 16.684 60.5049 8.76469C59.0835 7.3432 57.5025 6.17602 55.8205 5.26465C59.9794 5.88005 63.9831 7.7882 67.1825 10.9875C75.1018 18.9084 75.108 31.7429 67.201 39.67Z" fill="#F82F40"/>
<path d="M12.6093 46.3499C12.1005 46.2762 11.6941 45.8888 11.5962 45.3841L9.65726 35.3902C9.20338 33.0438 6.76645 31.6471 4.50789 32.4514C2.67207 33.1053 1.62821 35.0479 2.00057 36.9607L4.15146 48.0105L5.13847 53.0806C6.6117 60.649 13.9414 65.5901 21.5098 64.1169L24.5883 63.5176C25.2434 63.3901 25.6712 62.7557 25.5436 62.1006L24.7244 57.8925C23.5503 51.8608 18.6906 47.2309 12.6093 46.3499Z" fill="#FFDFD0"/>
<path d="M24.5878 63.5173L21.9495 64.0309L21.0781 59.5507C19.9036 53.5193 15.0437 48.8889 8.9622 48.0088C8.45358 47.9349 8.04738 47.5473 7.94948 47.0427L6.00974 37.0484C5.67557 35.3145 4.25528 34.0989 2.6261 33.9076C3.07351 33.2542 3.71673 32.7331 4.50703 32.452C6.7662 31.6469 9.20358 33.0436 9.65686 35.3897L11.5966 45.3841C11.6945 45.8886 12.1007 46.2762 12.6093 46.3502C18.6908 47.2303 23.5507 51.8607 24.7237 57.8921L25.5434 62.0994C25.6712 62.7548 25.2433 63.3898 24.5878 63.5173Z" fill="#FFCEC0"/>
<path d="M64.3907 46.3499C64.8995 46.2762 65.3058 45.8888 65.4037 45.3841L67.3427 35.3902C67.7966 33.0438 70.2335 31.6471 72.4921 32.4514C74.3279 33.1053 75.3718 35.0479 74.9994 36.9607L72.8485 48.0105L71.8615 53.0806C70.3883 60.649 63.0585 65.5901 55.4901 64.1169L52.4116 63.5176C51.7565 63.3901 51.3288 62.7557 51.4563 62.1006L52.2755 57.8925C53.4496 51.8608 58.3092 47.2309 64.3907 46.3499Z" fill="#FFDFD0"/>
<path d="M74.9992 36.9601L72.8489 48.0103L71.8613 53.0808C70.3881 60.6487 63.0585 65.5897 55.4904 64.1163L54.0304 63.8322C60.7109 63.9896 66.7291 59.3196 68.0494 52.5391L69.0355 47.4686L71.1873 36.4199C71.4802 34.9172 70.8973 33.3954 69.7449 32.4975C70.5883 32.1635 71.5566 32.1178 72.4926 32.452C74.328 33.1054 75.3716 35.0482 74.9992 36.9601Z" fill="#FFCEC0"/>
</g>
<defs>
<clipPath id="clip0_9_291">
<rect width="77" height="77" fill="white"/>
</clipPath>
</defs>
</svg>
