<svg width="57" height="57" viewBox="0 0 57 57" fill="none" xmlns="http://www.w3.org/2000/svg">
<g clip-path="url(#clip0_9_519)">
<path d="M0.510665 7.02309C0.892881 6.44977 0.988436 5.68533 1.46621 5.20756C1.75287 4.82534 2.32619 4.82534 2.61286 5.20756C2.80397 5.58978 2.61286 6.06755 2.5173 6.44977C2.42175 6.73643 2.23064 6.83199 1.94398 6.83199C1.75287 7.11865 1.56176 7.40531 1.2751 7.59642C0.892882 7.97864 0.128448 7.50087 0.510665 7.02309Z" fill="#6F2205"/>
<path d="M6.14831 3.20091C6.62608 2.62758 7.1994 2.05426 7.77273 1.57649C8.34605 1.09872 9.11049 0.52539 9.77937 0.52539C10.1616 0.52539 10.3527 1.00316 10.066 1.19427C9.58826 1.67204 8.82383 1.7676 8.2505 2.14981C7.58162 2.53203 7.10385 3.0098 6.53052 3.58313C6.24386 3.77424 5.9572 3.39202 6.14831 3.20091Z" fill="#6F2205"/>
<path d="M14.7482 0.907766C13.9838 0.716657 13.1238 0.621103 12.2638 0.621103C11.9772 0.621103 11.9772 0.143331 12.2638 0.143331C13.4105 0.143331 15.7038 -0.429994 16.4682 0.716657C16.6593 0.907766 16.3727 1.19443 16.1816 1.19443C15.7038 1.19443 15.226 1.00332 14.7482 0.907766Z" fill="#6F2205"/>
<path d="M18.3794 6.25894C18.5705 4.73008 18.8571 3.39232 18.0927 1.959C17.9971 1.76789 18.1882 1.67234 18.2838 1.86345C19.3349 3.29676 19.8127 4.92118 18.9527 6.54561C18.7616 6.92782 18.2838 6.54561 18.3794 6.25894Z" fill="#6F2205"/>
<path d="M13.4104 13.139C13.6971 12.3745 14.2704 11.8012 14.7482 11.1323C15.3215 10.3679 15.8948 9.69902 16.5637 9.03014C16.7548 8.83903 17.137 9.1257 16.9459 9.41236C16.3726 9.98568 15.9904 10.6546 15.5126 11.3234C15.0348 11.9923 14.6526 12.8523 14.0793 13.4256C13.7926 13.7123 13.2193 13.5212 13.4104 13.139Z" fill="#6F2205"/>
<path d="M6.5306 19.5406C7.19948 17.8206 8.8239 16.1962 10.1617 14.954C10.4483 14.7629 10.735 15.0495 10.5439 15.3362C9.875 16.1006 9.20612 16.9606 8.63279 17.8206C8.15502 18.4895 7.7728 19.2539 7.19948 19.8272C6.81726 20.1139 6.43504 19.8272 6.5306 19.5406Z" fill="#6F2205"/>
<path d="M2.99502 28.0452C2.89947 26.3252 3.56835 24.6053 4.14167 23.0764C4.23723 22.7897 4.61944 22.8853 4.61944 23.172C4.14167 24.7964 3.95056 26.4208 3.85501 28.0452C3.75946 28.523 2.99502 28.523 2.99502 28.0452Z" fill="#6F2205"/>
<path d="M6.14835 34.4473C5.57502 33.9696 5.0017 33.3007 4.52392 32.7273C4.14171 32.2496 4.71503 31.6763 5.1928 32.0585C5.67058 32.5364 6.2439 33.014 6.81723 33.4918C7.39055 33.9697 8.25054 34.4473 8.72831 35.1162C8.91942 35.4029 8.63276 35.7851 8.25054 35.6895C7.48611 35.6895 6.72167 35.0207 6.14835 34.4473Z" fill="#6F2205"/>
<path d="M11.3083 36.2628C10.9261 36.2628 10.9261 35.5941 11.3083 35.5941C12.2638 35.4985 13.1238 35.3074 14.0793 35.1161C14.9393 34.925 15.7993 34.4473 16.7549 34.4473C17.2326 34.4473 17.4237 35.1161 16.946 35.3074C15.3215 36.1674 13.0282 36.3584 11.3083 36.2628Z" fill="#6F2205"/>
<path d="M20.9593 32.1539C21.6282 31.6759 22.2971 31.1983 22.966 30.7204C23.6349 30.3383 24.3037 29.6694 25.0682 29.5737C25.4504 29.5737 25.5459 29.9559 25.4504 30.2426C25.1637 30.9115 24.3037 31.1982 23.7304 31.4848C22.966 31.9626 22.106 32.3448 21.3416 32.8226C20.8638 33.0138 20.5771 32.4405 20.9593 32.1539Z" fill="#6F2205"/>
<path d="M27.9346 27.3764C28.6991 26.5164 29.4635 25.8476 30.3235 25.2742C31.1835 24.7009 32.4257 23.9365 33.4768 24.1276C33.9546 24.2231 34.0501 24.7009 33.6679 24.9876C32.999 25.4653 32.0435 25.5609 31.2791 25.8476C30.1324 26.2298 29.0813 26.8987 28.1258 27.6631C28.0302 27.8542 27.7435 27.5675 27.9346 27.3764Z" fill="#6F2205"/>
<path d="M37.2991 21.9298C38.0636 21.0698 38.9235 20.4009 39.9746 19.8276C41.0257 19.2542 42.3637 18.5854 43.5103 18.7765C43.8925 18.872 43.8925 19.4453 43.6059 19.5409C42.7457 20.1142 41.5991 20.1142 40.6435 20.4964C39.5926 20.8787 38.5413 21.5475 37.5858 22.312C37.3947 22.5031 37.0125 22.2164 37.2991 21.9298Z" fill="#6F2205"/>
<path d="M51.9188 21.8343C51.5367 21.1654 51.2501 20.5921 50.6767 20.1143C49.9123 19.6365 48.7657 19.4454 47.9057 19.4454C47.6188 19.4454 47.6188 18.9677 47.9057 18.9677C49.7212 18.7765 52.8743 19.1588 52.7789 21.6432C52.6834 22.0254 52.1101 22.2165 51.9188 21.8343Z" fill="#6F2205"/>
<path d="M55.2633 31.9627C55.1677 30.9117 55.3587 29.8605 55.3587 28.8095C55.2633 27.4716 54.8809 26.2294 54.1165 25.1783C54.0211 24.9872 54.3077 24.8916 54.4031 24.9872C55.932 26.9938 57.2698 29.7651 56.2187 32.2495C55.932 32.7271 55.2633 32.4404 55.2633 31.9627Z" fill="#6F2205"/>
<path d="M48.7655 40.0853C49.1477 39.4164 49.721 38.8431 50.1988 38.0787C50.581 37.4098 50.7721 36.6452 50.8677 35.8809C50.9632 35.403 51.6321 35.403 51.6321 35.8809C51.7277 37.6009 51.1543 39.7986 49.5299 40.7542C49.0522 41.1366 48.5742 40.5631 48.7655 40.0853Z" fill="#6F2205"/>
<path d="M43.0321 44.0026C44.2743 42.7603 45.6121 41.4227 47.141 40.5626C47.6189 40.2759 47.9054 40.9448 47.5232 41.2315C46.1854 42.2826 45.2299 44.0026 43.6054 44.7671C43.1278 44.8625 42.6501 44.3848 43.0321 44.0026Z" fill="#6F2205"/>
<path d="M43.1278 51.1693C42.5545 50.8826 42.1723 50.1182 41.8856 49.5448C41.5989 48.876 41.5035 48.1115 41.5035 47.3471C41.5035 46.8693 42.1723 46.8693 42.1723 47.3471C42.1723 48.016 42.3635 48.5893 42.6502 49.1626C42.9368 49.6406 43.4146 50.0228 43.7011 50.5004C43.9876 50.8826 43.51 51.3602 43.1278 51.1693Z" fill="#6F2205"/>
<path d="M46.8544 56.9025C44.6567 55.5648 42.1723 54.7048 39.879 53.5581C38.8279 52.9848 39.7834 51.4559 40.8345 51.9337C42.7454 52.7937 44.7522 53.5581 46.5678 54.7048C46.6633 53.8448 46.7589 52.9848 46.8544 52.0293C46.95 51.647 46.95 50.9782 47.3324 50.6915L47.4278 50.5961C47.4278 50.5961 47.4278 50.5005 47.5233 50.5005C47.7144 50.3094 48.0966 50.5005 48.0966 50.6917C48.1922 50.7872 48.1922 50.8829 48.1922 51.0739C48.2876 51.5518 48.1922 52.0294 48.1922 52.6027C48.0966 53.8449 48.0009 54.9916 48.0966 56.2338C48.1922 56.807 47.4278 57.1892 46.8544 56.9025Z" fill="#6F2205"/>
</g>
<defs>
<clipPath id="clip0_9_519">
<rect width="57" height="57" fill="white" transform="matrix(4.37114e-08 1 1 -4.37114e-08 0 0)"/>
</clipPath>
</defs>
</svg>
