<svg width="20" height="20" viewBox="0 0 20 20" fill="none" xmlns="http://www.w3.org/2000/svg">
<path d="M9.99219 0C5.79224 0 2.375 3.4563 2.375 7.65625C2.375 9.3186 2.90088 10.8978 3.90222 12.2316L9.99219 20L16.089 12.223C17.0835 10.8978 17.6094 9.3186 17.6094 7.65625C17.6094 3.4563 14.1921 0 9.99219 0ZM9.99219 11.7578C7.73083 11.7578 5.89062 9.9176 5.89062 7.65625C5.89062 5.3949 7.73083 3.55469 9.99219 3.55469C12.2535 3.55469 14.0938 5.3949 14.0938 7.65625C14.0938 9.9176 12.2535 11.7578 9.99219 11.7578Z" fill="#EACC97"/>
<path d="M9.99219 4.72656C8.37695 4.72656 7.0625 6.04102 7.0625 7.65625C7.0625 9.27148 8.37695 10.5859 9.99219 10.5859C11.6074 10.5859 12.9219 9.27148 12.9219 7.65625C12.9219 6.04102 11.6074 4.72656 9.99219 4.72656Z" fill="#EACC97"/>
</svg>
