<svg width="16" height="16" viewBox="0 0 16 16" fill="none" xmlns="http://www.w3.org/2000/svg">
<path d="M14.7161 10.5022C13.7365 10.5022 12.7747 10.349 11.8633 10.0478C11.4166 9.89542 10.8676 10.0352 10.595 10.3151L8.79598 11.6732C6.70961 10.5595 5.42444 9.27475 4.32595 7.20404L5.64407 5.45188C5.98653 5.10988 6.10936 4.61029 5.96219 4.14154C5.65969 3.22529 5.50603 2.26392 5.50603 1.28392C5.50607 0.575958 4.93011 0 4.2222 0H1.28387C0.575957 0 0 0.575958 0 1.28387C0 9.39846 6.60157 16 14.7161 16C15.424 16 16 15.424 16 14.7161V11.786C16 11.0781 15.424 10.5022 14.7161 10.5022Z" fill="#EACC97"/>
</svg>
