<svg width="20" height="12" viewBox="0 0 20 12" fill="none" xmlns="http://www.w3.org/2000/svg">
<path d="M16.5958 6.85666C16.2725 6.44832 16.365 6.26666 16.5958 5.90166C16.6 5.89749 19.2692 2.20916 19.5442 0.958323L19.5458 0.95749C19.6825 0.501656 19.5458 0.166656 18.885 0.166656H16.6983C16.1417 0.166656 15.885 0.454156 15.7475 0.775823C15.7475 0.775823 14.6342 3.44082 13.0592 5.16832C12.5508 5.66749 12.3158 5.82749 12.0383 5.82749C11.9017 5.82749 11.6892 5.66749 11.6892 5.21166V0.95749C11.6892 0.410823 11.5333 0.166656 11.0725 0.166656H7.63417C7.285 0.166656 7.0775 0.421657 7.0775 0.659157C7.0775 1.17749 7.865 1.29666 7.94667 2.75499V5.91916C7.94667 6.61249 7.82083 6.73999 7.54167 6.73999C6.79833 6.73999 4.99417 4.06416 3.925 1.00166C3.70917 0.40749 3.49833 0.16749 2.9375 0.16749H0.75C0.125833 0.16749 0 0.45499 0 0.776656C0 1.34499 0.743333 4.17082 3.45667 7.90416C5.265 10.4525 7.81167 11.8333 10.1283 11.8333C11.5208 11.8333 11.6908 11.5267 11.6908 10.9992C11.6908 8.56416 11.565 8.33416 12.2625 8.33416C12.5858 8.33416 13.1425 8.49416 14.4425 9.72332C15.9283 11.1808 16.1725 11.8333 17.0042 11.8333H19.1908C19.8142 11.8333 20.13 11.5267 19.9483 10.9217C19.5325 9.64916 16.7225 7.03166 16.5958 6.85666Z" fill="#EACC97"/>
</svg>
