<svg width="35" height="35" viewBox="0 0 35 35" fill="none" xmlns="http://www.w3.org/2000/svg">
<g clip-path="url(#clip0_13_45)">
<rect width="35" height="35" fill="black" fill-opacity="0.2"/>
<path d="M29.2148 34.9999H23.4368C22.838 34.9999 22.3526 34.5145 22.3526 33.9157V24.6278C22.3526 24.4564 22.4916 24.3174 22.663 24.3174H29.9885C30.1599 24.3174 30.2989 24.4564 30.2989 24.6278V33.9157C30.299 34.5145 29.8136 34.9999 29.2148 34.9999Z" fill="#E5F9F6"/>
<path d="M29.9887 24.3174H26.3986V34.9999H29.215C29.8137 34.9999 30.2991 34.5145 30.2991 33.9157V24.6278C30.2991 24.4564 30.1602 24.3174 29.9887 24.3174Z" fill="#D6E5E2"/>
<path d="M22.3527 27.626V33.9159C22.3527 34.5147 22.8381 35.0001 23.4369 35.0001H29.215C29.8137 35.0001 30.2991 34.5147 30.2991 33.9159V27.626H22.3527Z" fill="#A36C22"/>
<path d="M13.191 10.613C13.191 10.613 13.5897 10.2113 13.5897 8.34949C13.5897 5.64725 12.5916 3.69922 12.5916 3.69922H9.15289C9.15289 3.69922 8.15478 5.64725 8.15478 8.34949C8.15478 10.2113 8.55338 10.613 8.55338 10.613L5.48446 13.0565C4.98934 13.4507 4.70093 14.0491 4.70093 14.682V33.7695C4.70093 34.4489 5.2517 34.9997 5.93112 34.9997H15.8133C16.4928 34.9997 17.0435 34.4489 17.0435 33.7695V14.682C17.0435 14.0491 16.7551 13.4507 16.26 13.0565L13.191 10.613Z" fill="#A36C22"/>
<path d="M16.2599 13.0565L13.191 10.613C13.191 10.613 13.5896 10.2113 13.5896 8.34949C13.5896 5.64725 12.5915 3.69922 12.5915 3.69922H9.64922C9.64922 6.34212 9.64916 9.43401 9.64916 9.44454C9.64232 11.034 10.3633 11.4989 11.6068 12.489L12.3196 13.0566C12.8147 13.4508 13.1031 14.0492 13.1031 14.682V34.9998H15.8132C16.4927 34.9998 17.0434 34.449 17.0434 33.7696V14.682C17.0434 14.0491 16.755 13.4507 16.2599 13.0565Z" fill="#6F2205"/>
<path d="M17.0439 15.9175H4.70093V32.4174H17.0439V15.9175Z" fill="#4A4256"/>
<path d="M17.0435 15.9175H13.1031V32.4174H17.0435V15.9175Z" fill="#352F3F"/>
<path d="M13.6655 20.528C11.7813 19.6874 9.96734 19.6855 8.07871 20.5281C7.85559 20.6276 7.59316 20.5417 7.46861 20.3316C7.31227 20.0679 7.15593 19.8041 6.99953 19.5403C6.85296 19.2931 6.95332 18.9736 7.21417 18.8528C9.644 17.7283 12.0992 17.7279 14.53 18.8528C14.7909 18.9736 14.8913 19.2931 14.7447 19.5403C14.5884 19.8041 14.432 20.0678 14.2757 20.3316C14.1511 20.5417 13.8886 20.6275 13.6655 20.528Z" fill="#EFEFEF"/>
<path d="M10.8718 26.735C12.5715 26.735 13.9493 25.7905 13.9493 24.6253C13.9493 23.4602 12.5715 22.5156 10.8718 22.5156C9.17211 22.5156 7.79425 23.4602 7.79425 24.6253C7.79425 25.7905 9.17211 26.735 10.8718 26.735Z" fill="#EFEFEF"/>
<path d="M14.0642 29.8691H7.67989C7.38813 29.8691 7.15161 29.6325 7.15161 29.3408C7.15161 29.049 7.38813 28.8125 7.67989 28.8125H14.0642C14.356 28.8125 14.5925 29.049 14.5925 29.3408C14.5925 29.6325 14.356 29.8691 14.0642 29.8691Z" fill="#EFEFEF"/>
<path d="M13.5875 8.16219C13.5432 5.55798 12.5915 3.69922 12.5915 3.69922H9.15286C9.15286 3.69922 8.20129 5.55791 8.15686 8.16219H13.5875Z" fill="#4A4256"/>
<path d="M13.5875 8.16219C13.5459 5.72101 12.7072 3.93492 12.6022 3.72082C12.6007 3.71781 12.6 3.71624 12.5988 3.71385C12.5972 3.71063 12.5953 3.70681 12.5943 3.70476C12.5925 3.70113 12.5915 3.69922 12.5915 3.69922H9.64924C9.64924 5.27743 9.64924 7.01546 9.64917 8.16219H13.5875Z" fill="#352F3F"/>
<path d="M12.9425 4.28619H8.80195C8.61881 4.28619 8.47034 4.13772 8.47034 3.95458V0.331611C8.47034 0.148476 8.61881 0 8.80195 0H12.9425C13.1256 0 13.2741 0.148476 13.2741 0.331611V3.95451C13.2741 4.13772 13.1256 4.28619 12.9425 4.28619Z" fill="#4A4256"/>
<path d="M13.2739 1.33691H8.47034V2.4658H13.2739V1.33691Z" fill="#EFEFEF"/>
<path d="M30.2991 33.9159V27.626H26.3986V35.0001H29.215C29.8137 35.0001 30.2991 34.5147 30.2991 33.9159Z" fill="#6F2205"/>
<path d="M29.2148 33.2767H23.4368C22.838 33.2767 22.3526 33.2909 22.3526 32.6921V33.916C22.3526 34.5148 22.838 35.0002 23.4368 35.0002H29.2148C29.8136 35.0002 30.299 34.5148 30.299 33.916V32.6921C30.299 33.291 29.8136 33.2767 29.2148 33.2767Z" fill="#D7E0DC"/>
<path d="M29.215 33.2766H26.3986V35.0002H29.215C29.5732 35.0002 29.8899 34.8257 30.0872 34.5579C30.1167 34.5179 30.1444 34.4767 30.1682 34.4328C30.1849 34.4021 30.2002 34.3704 30.2139 34.338C30.2304 34.299 30.2439 34.2584 30.2558 34.2172C30.2723 34.1602 30.2844 34.1015 30.2913 34.0411C30.296 34.0001 30.2991 33.9584 30.2991 33.916V32.6921C30.2991 33.2909 29.8137 33.2766 29.215 33.2766Z" fill="#C9D1CD"/>
<path d="M14.5301 18.8531C14.0553 18.6333 13.5794 18.4572 13.1031 18.3232V20.3019C13.29 20.3691 13.4774 20.4443 13.6655 20.5282C13.8886 20.6278 14.1511 20.542 14.2757 20.3318C14.432 20.068 14.5883 19.8043 14.7447 19.5406C14.8914 19.2933 14.791 18.9738 14.5301 18.8531Z" fill="#DEE0E2"/>
<path d="M13.1031 23.1731V26.0777C13.6273 25.6994 13.9496 25.1883 13.9496 24.6254C13.9496 24.0624 13.6273 23.5514 13.1031 23.1731Z" fill="#DEE0E2"/>
</g>
<defs>
<clipPath id="clip0_13_45">
<rect width="35" height="35" fill="white"/>
</clipPath>
</defs>
</svg>
