<svg width="35" height="35" viewBox="0 0 35 35" fill="none" xmlns="http://www.w3.org/2000/svg">
<path d="M26.7456 34.999C26.1793 34.999 25.7202 34.5399 25.7202 33.9736V30.0088C25.7202 29.4425 26.1793 28.9834 26.7456 28.9834C27.3119 28.9834 27.771 29.4425 27.771 30.0088V33.9736C27.771 34.54 27.3119 34.999 26.7456 34.999Z" fill="#93B0D0"/>
<path d="M26.7456 28.9834V34.999C27.3119 34.999 27.771 34.5399 27.771 33.9736V30.0088C27.771 29.4425 27.3119 28.9834 26.7456 28.9834Z" fill="#6892C1"/>
<path d="M13.0051 10.1173H11.8774L11.8779 6.02881H5.17836L5.17788 10.1173H4.05029C2.63676 10.1173 1.48682 11.2673 1.48682 12.6808V15.8959L4.07066 22.0744L1.48682 28.3576V32.4366C1.48682 33.8502 2.63676 35.0001 4.05029 35.0001H13.0051C14.4186 35.0001 15.5686 33.8502 15.5686 32.4366V28.3227L12.1341 21.2715L15.5686 16.0006V12.6808C15.5686 11.2673 14.4186 10.1173 13.0051 10.1173Z" fill="#A36C22"/>
<path d="M15.5685 12.6808C15.5685 11.2673 14.4186 10.1173 13.005 10.1173H11.8774L11.8778 6.02881H8.52832V35.0001H13.005C14.4186 35.0001 15.5685 33.8502 15.5685 32.4366V28.3227L12.1341 21.2715L15.5685 16.0006V12.6808Z" fill="#6F2205"/>
<path d="M29.8218 9.22852H23.6694V1.02539H29.8218V9.22852Z" fill="#FFF4F4"/>
<path d="M26.7456 1.02539H29.8218V9.22852H26.7456V1.02539Z" fill="#F6EFEA"/>
<path d="M1.48682 15.9277H15.5686V28.3212H1.48682V15.9277Z" fill="#93B0D0"/>
<path d="M28.7964 31.0342H24.6948C24.1285 31.0342 23.6694 30.5751 23.6694 30.0089V25.9072C23.6694 25.3409 24.1285 24.8818 24.6948 24.8818H28.7964C29.3627 24.8818 29.8218 25.3409 29.8218 25.9072V30.0089C29.8218 30.5752 29.3627 31.0342 28.7964 31.0342Z" fill="#FFF4F4"/>
<path d="M28.7964 24.8818H26.7456V31.0342H28.7964C29.3627 31.0342 29.8218 30.5751 29.8218 30.0089V25.9072C29.8218 25.3409 29.3627 24.8818 28.7964 24.8818Z" fill="#F6EFEA"/>
<path d="M30.8472 2.05078H22.644C22.0778 2.05078 21.6187 1.59168 21.6187 1.02539C21.6187 0.459102 22.0778 0 22.644 0H30.8472C31.4135 0 31.8726 0.459102 31.8726 1.02539C31.8726 1.59168 31.4135 2.05078 30.8472 2.05078Z" fill="#93B0D0"/>
<path d="M30.3556 17.3967L31.8726 15.9423V13.8828L30.0996 12.9403L31.8726 11.8349V8.75C31.8726 8.18371 31.4135 7.72461 30.8472 7.72461H22.644C22.0778 7.72461 21.6187 8.18371 21.6187 8.75V17.3967H30.3556Z" fill="#FFF4F4"/>
<path d="M31.8726 8.75C31.8726 8.18371 31.4135 7.72461 30.8472 7.72461H26.7456V17.3967H30.3556L31.8726 15.9423V13.8828L30.0996 12.9403L31.8726 11.8349V8.75Z" fill="#F6EFEA"/>
<path d="M31.8726 11.8262H28.0444C27.4781 11.8262 27.019 12.2853 27.019 12.8516C27.019 13.4179 27.4781 13.877 28.0444 13.877H31.8726V11.8262Z" fill="#EEE1DC"/>
<path d="M21.6187 16.9414V25.9071C21.6187 26.4734 22.0778 26.9325 22.644 26.9325H30.8472C31.4135 26.9325 31.8726 26.4734 31.8726 25.9071V22.0626L30.821 21.0619L31.8726 20.0263V17.9668L30.7512 16.9414H21.6187Z" fill="#FF405C"/>
<path d="M31.8726 17.9668L30.7512 16.9414H26.7456V26.9325H30.8472C31.4135 26.9325 31.8726 26.4734 31.8726 25.9071V22.0626L30.821 21.0619L31.8726 20.0263V17.9668Z" fill="#C1126B"/>
<path d="M31.8726 15.9277H28.0444C27.4781 15.9277 27.019 16.3868 27.019 16.9531C27.019 17.5194 27.4781 17.9785 28.0444 17.9785H31.8449H31.8726V15.9277Z" fill="#EEE1DC"/>
<path d="M31.8726 20.0293H28.0444C27.4781 20.0293 27.019 20.4884 27.019 21.0547C27.019 21.621 27.4781 22.0801 28.0444 22.0801H31.8726V20.0293Z" fill="#EEE1DC"/>
<path d="M32.4878 9.77539H21.0035C20.4373 9.77539 19.9781 9.31629 19.9781 8.75C19.9781 8.18371 20.4373 7.72461 21.0035 7.72461H32.4878C33.0541 7.72461 33.5132 8.18371 33.5132 8.75C33.5132 9.31629 33.0541 9.77539 32.4878 9.77539Z" fill="#93B0D0"/>
<path d="M11.8779 6.15672L11.8785 0.512695C11.8785 0.229482 11.649 0 11.3658 0H5.69165C5.40844 0 5.17896 0.229482 5.17896 0.512695L5.17834 6.15672H11.8779Z" fill="#FFDE46"/>
<path d="M11.3657 0H8.52832V6.15672H11.8778L11.8784 0.512695C11.8784 0.229482 11.6489 0 11.3657 0Z" fill="#FFCD00"/>
<path d="M8.52832 15.9277H15.5685V28.3212H8.52832V15.9277Z" fill="#6892C1"/>
<path d="M30.8472 0H26.7456V2.05078H30.8472C31.4135 2.05078 31.8726 1.59168 31.8726 1.02539C31.8726 0.459102 31.4135 0 30.8472 0Z" fill="#6892C1"/>
<path d="M32.4878 7.72461H26.7456V9.77539H32.4878C33.0541 9.77539 33.5132 9.31629 33.5132 8.75C33.5132 8.18371 33.0541 7.72461 32.4878 7.72461Z" fill="#6892C1"/>
</svg>
