<svg width="35" height="35" viewBox="0 0 35 35" fill="none" xmlns="http://www.w3.org/2000/svg">
<g clip-path="url(#clip0_13_343)">
<path d="M33.9744 17.4999C33.9744 26.5986 26.5986 33.9744 17.4999 33.9744C8.40122 33.9744 1.02539 26.5986 1.02539 17.4999C1.02539 8.40149 8.40122 1.02539 17.4999 1.02539C26.5986 1.02539 33.9744 8.40149 33.9744 17.4999Z" fill="#FEF4F5"/>
<path d="M17.5 1.02539V33.9744C26.5987 33.9744 33.9745 26.5986 33.9745 17.4999C33.9745 8.40122 26.5987 1.02539 17.5 1.02539Z" fill="#93B0D0"/>
<path d="M34.9953 18.4993L34.98 18.3359C34.9929 18.0585 34.9998 17.78 34.9998 17.5004C34.9998 12.8261 33.1795 8.43134 29.8742 5.12608C26.569 1.82081 22.1742 0.000488281 17.4999 0.000488281C12.8256 0.000488281 8.43085 1.82081 5.12559 5.12608C1.82033 8.43134 0 12.8261 0 17.5004C0 17.6214 0.00186919 17.7418 0.00427244 17.8622C0 18.1073 -0.00133513 18.3562 0.00186919 18.6104C0.00213622 18.6331 0.00320433 18.6561 0.00480649 18.6788C0.143928 20.4452 0.442731 21.9683 0.918307 23.3352C0.921511 23.3451 0.92525 23.3547 0.928721 23.3643C1.52312 24.92 2.25505 26.3011 3.10393 27.4691C3.1098 27.4773 3.11594 27.4853 3.12208 27.4934C3.14131 27.5182 3.1608 27.5428 3.1803 27.5676C3.75574 28.3828 4.40542 29.1545 5.12559 29.8747C8.43085 33.18 12.8256 35.0003 17.4999 35.0003C22.1742 35.0003 26.569 33.18 29.8742 29.8747C32.8393 26.9099 34.6081 23.0682 34.9413 18.9343C34.9889 18.7989 35.0097 18.6515 34.9953 18.4993ZM23.5911 31.6972C23.9732 31.4667 24.3446 31.2205 24.7024 30.9583C24.7051 30.9567 24.7075 30.9548 24.7102 30.9527C26.268 29.7903 27.6272 28.2712 28.6406 26.5601C29.5741 25.0276 29.9992 23.5325 30.2651 22.4009C30.2683 22.3865 30.2716 22.372 30.2742 22.3576C30.3228 22.1018 30.376 21.8492 30.4323 21.6065C30.4368 21.5875 30.4406 21.5683 30.4441 21.5491C30.4785 21.3499 30.4913 21.1709 30.5025 21.0129C30.5084 20.9301 30.514 20.8519 30.5215 20.7904C30.522 20.7862 30.5226 20.7819 30.5231 20.7776L30.5912 20.1728C30.615 19.9749 30.6075 19.8024 30.6021 19.6761C30.6003 19.6355 30.5984 19.5899 30.5989 19.5696C30.5995 19.5552 30.5995 19.5407 30.5995 19.5266C30.592 18.9578 30.6056 18.651 30.6056 18.6481C30.6064 18.6331 30.6053 18.6187 30.6053 18.6037C30.6056 18.5837 30.6061 18.5634 30.6051 18.5431V18.5429C30.6035 18.5098 30.6003 18.4764 30.5952 18.443C30.5947 18.4401 30.5487 18.1311 30.4964 17.5688C30.4951 17.5549 30.4935 17.5407 30.4916 17.5268C30.4889 17.5079 30.4862 17.4633 30.4838 17.4243C30.4764 17.2991 30.4659 17.1284 30.4211 16.9332L30.2908 16.346C30.2897 16.3415 30.2886 16.3367 30.2876 16.3321C30.2737 16.2734 30.2603 16.1984 30.2462 16.1188C30.2192 15.9661 30.1882 15.793 30.1335 15.601C30.1282 15.5823 30.1223 15.5639 30.1159 15.5455C30.0336 15.3097 29.9559 15.0704 29.8846 14.8349C29.8804 14.8202 29.8756 14.8061 29.8705 14.7917C29.499 13.7329 28.9394 12.3449 27.902 10.9921C26.7911 9.50212 25.3922 8.23401 23.8557 7.32478C23.853 7.32318 23.8503 7.32158 23.8474 7.31997C22.0527 6.28044 19.9926 5.65319 17.8882 5.50526C17.6609 5.47882 17.451 5.48817 17.2809 5.49591C17.1931 5.49992 17.11 5.50365 17.0462 5.50125C17.0363 5.50098 17.0265 5.50072 17.0166 5.50045L16.6486 5.49805C16.4254 5.4863 16.2321 5.49751 16.0451 5.53303C15.894 5.55653 15.7306 5.57175 15.5583 5.5883C15.2125 5.62088 14.8238 5.65773 14.4216 5.77175C13.2208 5.97362 12.1276 6.45988 11.1951 6.90128C11.1663 6.91463 11.1382 6.92985 11.111 6.94587C10.8942 7.07431 10.6731 7.19661 10.4536 7.30929C10.4464 7.31303 10.4394 7.31677 10.4322 7.32051C10.2325 7.42919 10.0675 7.55149 9.92167 7.65937C9.84129 7.71865 9.76546 7.77472 9.7003 7.81584C9.69496 7.81932 9.68935 7.82252 9.68401 7.82626L9.34142 8.05083C9.30163 8.07726 9.26344 8.1061 9.2274 8.13761L8.91604 8.41105C8.91043 8.41585 8.90509 8.42093 8.89949 8.426C8.8338 8.48635 8.75369 8.5507 8.66877 8.6188C8.54007 8.72187 8.39454 8.83856 8.25034 8.97982C7.45994 9.73711 6.73657 10.649 6.03936 11.7668C6.03241 11.778 6.02574 11.7892 6.01933 11.8007C5.48074 12.7425 5.05189 13.8165 4.70849 15.0833C4.70449 15.0969 4.70128 15.1102 4.69835 15.1241C4.4695 16.1287 4.37311 17.2379 4.39474 18.6147C4.39527 18.6465 4.39741 18.6785 4.40088 18.71C4.54828 20.0566 4.77979 21.1274 5.12933 22.0794C5.1344 22.093 5.13947 22.1066 5.14508 22.12C5.6268 23.2775 6.15925 24.2362 6.77261 25.0506C6.78116 25.0618 6.78997 25.073 6.79905 25.0842C7.5753 26.0298 8.33873 26.7759 9.1326 27.3649C9.28187 27.4784 9.4274 27.5663 9.55584 27.644C9.63702 27.6928 9.71339 27.739 9.7708 27.7801C9.7764 27.7844 9.78228 27.7882 9.78789 27.7922L10.088 27.9983C10.1321 28.0282 10.1783 28.0549 10.2263 28.0779L10.5545 28.2346C10.5609 28.2376 10.5671 28.2405 10.5735 28.2434C10.6266 28.2675 10.6952 28.3067 10.7679 28.3478C10.9022 28.4242 11.0694 28.5193 11.2683 28.5946C11.2768 28.598 11.2856 28.6013 11.2945 28.6042C11.4921 28.6733 11.687 28.7503 11.8734 28.8328C11.9078 28.8477 11.9428 28.8611 11.9786 28.8723C12.9207 29.1708 13.8488 29.4411 14.8358 29.475C15.0382 29.507 15.232 29.5164 15.4155 29.5164C15.5466 29.5164 15.6726 29.5115 15.7923 29.507C15.9346 29.5017 16.0694 29.4966 16.1851 29.5011C16.4134 29.5198 16.6118 29.4913 16.7514 29.4637L17.0422 29.4226C17.0529 29.421 17.0636 29.4194 17.0743 29.4176C17.1084 29.4117 17.1707 29.4074 17.231 29.4034C17.3707 29.3938 17.5586 29.3812 17.7635 29.3278C19.4383 28.9818 20.9555 28.2982 22.2741 27.2963C22.2781 27.2934 22.2818 27.2901 22.2858 27.2872C23.3579 26.4474 24.2888 25.3563 24.9785 24.1315C25.6039 23.0658 25.8517 22.0655 26.0352 21.211C26.0397 21.1899 26.0437 21.1685 26.0469 21.1472C26.0696 20.9947 26.0982 20.8468 26.1321 20.7071C26.1385 20.6802 26.1441 20.6529 26.1484 20.6254C26.1743 20.4607 26.1772 20.3127 26.1794 20.2046C26.1799 20.1669 26.181 20.1157 26.1828 20.0978C26.1844 20.0841 26.1858 20.0703 26.1866 20.0564C26.1943 19.9421 26.2058 19.8323 26.2213 19.7202C26.2215 19.7173 26.2221 19.7143 26.2224 19.7116C26.2475 19.517 26.2306 19.3517 26.2205 19.2532C26.2194 19.2419 26.2181 19.2313 26.2173 19.2206C26.217 19.2075 26.2165 19.1941 26.2159 19.1811C26.2023 18.9127 26.2077 18.7479 26.2101 18.6956C26.2202 18.5877 26.2141 18.4764 26.1874 18.3648C26.1871 18.3629 26.1473 18.1856 26.1134 17.8633C26.1118 17.8499 26.1102 17.8363 26.1083 17.823C26.1075 17.8141 26.1073 17.8051 26.1067 17.7957C26.1019 17.6975 26.0936 17.5327 26.037 17.3418C26.0362 17.3388 26.0354 17.3362 26.0344 17.3332C26.0018 17.2262 25.9727 17.118 25.9478 17.0115C25.9446 16.9973 25.9412 16.9837 25.9372 16.9698C25.9329 16.9541 25.9246 16.9073 25.9187 16.8731C25.9003 16.7706 25.8755 16.6296 25.8247 16.4737C25.8157 16.4459 25.8053 16.4184 25.794 16.3917C25.7372 16.2571 25.6891 16.1268 25.6466 15.9928C25.6397 15.9706 25.632 15.9487 25.6237 15.9273C25.3203 15.1532 24.9358 14.2539 24.2076 13.3743C23.4124 12.3756 22.437 11.5409 21.3862 10.9601C21.3814 10.9574 21.3763 10.9548 21.3715 10.9521C20.1477 10.3013 18.8059 9.93711 17.3824 9.86928C17.1864 9.84872 17.0155 9.86741 16.8986 9.88023C16.8705 9.88317 16.8326 9.88744 16.8163 9.88824C16.7958 9.88771 16.7752 9.88798 16.7546 9.88878C16.7015 9.89065 16.6462 9.89145 16.5864 9.89065C16.3867 9.87756 16.204 9.89465 16.0305 9.94245C15.9581 9.95794 15.8622 9.96889 15.7613 9.9801C15.5493 10.0039 15.2916 10.0327 15.016 10.1264C14.299 10.2637 13.671 10.5737 13.114 10.8487L12.9647 10.9222C12.9188 10.9446 12.875 10.9705 12.8328 10.9996C12.7297 11.0709 12.6269 11.1321 12.519 11.1865C12.5076 11.1921 12.4961 11.1983 12.4849 11.2044C12.3148 11.2981 12.1869 11.4066 12.0931 11.4856C12.067 11.5078 12.0312 11.5382 12.0224 11.5446C12.0063 11.5548 11.9903 11.5654 11.9748 11.5767C11.926 11.6114 11.875 11.645 11.8234 11.6765C11.7535 11.7192 11.6889 11.77 11.6312 11.8279L11.4464 12.013C11.4408 12.0189 11.4349 12.0247 11.4293 12.0306C11.4152 12.0456 11.369 12.0832 11.3353 12.1107C11.2525 12.1783 11.1497 12.2624 11.044 12.3748C10.449 12.9924 10.0071 13.6822 9.68802 14.2146C9.67707 14.233 9.66666 14.2517 9.65678 14.2707C9.27786 15.0034 9.06584 15.7452 8.9083 16.3743C8.90269 16.3968 8.89762 16.4197 8.89361 16.4424C8.76304 17.1714 8.76864 17.8619 8.78814 18.6246C8.78947 18.6764 8.79481 18.7282 8.80389 18.7795C8.92432 19.4492 9.06531 20.1602 9.34889 20.846C9.35851 20.8689 9.36892 20.8916 9.38014 20.9138C9.65117 21.4537 9.99083 22.0823 10.4568 22.6505C10.472 22.6692 10.488 22.6874 10.5046 22.705C10.9097 23.1336 11.4026 23.6249 11.9895 24.0233C12.1108 24.1082 12.224 24.1643 12.3076 24.2057C12.3268 24.2153 12.3463 24.2241 12.3647 24.2343C12.3679 24.2367 12.3711 24.2388 12.3743 24.2412L12.5487 24.3585C12.6291 24.4127 12.7169 24.4554 12.8096 24.485C12.8504 24.4978 12.8889 24.512 12.9244 24.5269C12.9364 24.532 12.9487 24.5368 12.961 24.5414C12.9722 24.5472 12.9831 24.5536 12.9941 24.5598C13.0867 24.6116 13.2269 24.6898 13.4152 24.7422C13.4304 24.7464 13.4459 24.7505 13.4614 24.7539C13.5337 24.7705 13.5976 24.7913 13.656 24.8169C13.7169 24.8439 13.7802 24.865 13.8451 24.8794C13.9295 24.8984 14.0125 24.9184 14.095 24.9382C14.5164 25.0386 14.9904 25.1518 15.517 25.1347C15.5955 25.144 15.6702 25.1478 15.7413 25.1478C15.8833 25.1478 16.0096 25.1331 16.1148 25.1208C16.1557 25.1163 16.2094 25.1099 16.2382 25.1083C16.4208 25.1264 16.6043 25.1051 16.7955 25.0434C16.8179 25.0378 16.8406 25.033 16.8641 25.0287C16.874 25.0271 16.8836 25.025 16.8932 25.0231C16.8959 25.0228 16.8986 25.0228 16.9012 25.0226C16.9968 25.0167 17.1645 25.0068 17.3565 24.9387C18.3133 24.6631 19.1354 24.2297 19.869 23.6145C19.8767 23.6078 19.8847 23.6012 19.8922 23.5945C20.4762 23.0741 20.9737 22.41 21.3323 21.6722C21.6519 21.0617 21.7374 20.4842 21.794 20.1004C21.7998 20.0601 21.8057 20.0209 21.8116 19.9829C21.8148 19.9618 21.8175 19.9408 21.8193 19.9194C21.8738 19.3285 21.8367 18.8847 21.8185 18.6684C21.8252 18.5669 21.8169 18.4676 21.7953 18.3728L21.7958 18.3749C21.7958 18.3749 21.7953 18.372 21.7945 18.3677C21.7942 18.3672 21.7942 18.3666 21.7942 18.3661C21.7908 18.3477 21.7822 18.2993 21.7745 18.2243C21.7742 18.2219 21.7739 18.2198 21.7737 18.2176C21.7705 18.1551 21.7625 18.0368 21.7192 17.8911C21.7083 17.855 21.6992 17.8214 21.6914 17.788C21.6904 17.7829 21.689 17.7776 21.6877 17.7722L21.6856 17.7605C21.6759 17.7065 21.6599 17.6165 21.6257 17.5111C21.6167 17.483 21.6062 17.4553 21.5948 17.428C21.5779 17.3885 21.5638 17.3498 21.5512 17.31C21.544 17.2876 21.5363 17.2657 21.5277 17.2438C21.4223 16.9746 21.2263 16.4753 20.8319 15.9973C20.4447 15.5124 19.9686 15.106 19.4543 14.8218C19.4495 14.8192 19.4444 14.8165 19.4399 14.8141C18.8441 14.4971 18.1926 14.319 17.5023 14.2838C17.3643 14.271 17.2518 14.2835 17.1877 14.2905H17.1875C17.1813 14.2907 17.1755 14.2907 17.1691 14.291C17.1586 14.2915 17.148 14.2915 17.1375 14.2915C17.003 14.2846 16.8764 14.2963 16.7533 14.3273C16.7359 14.3297 16.7183 14.3313 16.701 14.3332C16.6011 14.3444 16.4601 14.3604 16.2985 14.4104C15.9314 14.4867 15.6248 14.6381 15.3749 14.7615L15.3121 14.7922C15.2662 14.8149 15.2219 14.8408 15.1797 14.8699C15.1583 14.8849 15.137 14.8977 15.114 14.9092C15.1031 14.9148 15.0921 14.9206 15.0812 14.9265C14.9583 14.9946 14.8716 15.068 14.8195 15.1118L14.8165 15.1145C14.8131 15.1166 14.8099 15.119 14.8067 15.1212C14.7973 15.1281 14.7874 15.1343 14.7778 15.1401C14.7079 15.1829 14.6432 15.2336 14.5853 15.2915L14.5108 15.3663L14.5023 15.3733C14.4619 15.4064 14.3952 15.4608 14.3244 15.5359C14.0312 15.8408 13.8189 16.1709 13.6667 16.4248C13.6558 16.4432 13.6451 16.4622 13.6352 16.4811C13.4446 16.8504 13.3385 17.2235 13.2675 17.5071C13.2619 17.5298 13.2571 17.5525 13.2528 17.5752C13.1877 17.9383 13.1901 18.2793 13.1986 18.6259C13.2002 18.6782 13.2053 18.7303 13.2146 18.7819C13.2691 19.0857 13.3396 19.4387 13.4827 19.7851C13.4924 19.8083 13.5028 19.831 13.514 19.8534C13.6438 20.1122 13.8085 20.4158 14.0443 20.7039C14.0598 20.7229 14.0758 20.7413 14.0926 20.7589C14.2873 20.9648 14.5258 21.2019 14.8222 21.4035C14.9009 21.458 14.9728 21.4949 15.0171 21.517L15.0654 21.5496C15.1445 21.6027 15.2299 21.6444 15.3204 21.6738C15.3786 21.7055 15.478 21.7563 15.6072 21.7923C15.619 21.7955 15.6312 21.7987 15.6433 21.8014C15.6996 21.8254 15.7578 21.8441 15.8176 21.8577C15.851 21.8652 15.8839 21.873 15.9167 21.881C16.1084 21.9266 16.3399 21.9819 16.6139 21.9819C16.6614 21.9819 16.7103 21.9803 16.7602 21.9766C17.325 21.9354 17.752 21.4441 17.7106 20.8791C17.6692 20.3143 17.1805 19.8903 16.6155 19.9311C16.5797 19.9309 16.4716 19.905 16.3928 19.8863C16.3787 19.8828 16.3642 19.8793 16.3501 19.8761C16.3135 19.8625 16.2761 19.8502 16.2382 19.8387C16.2032 19.8206 16.1592 19.7995 16.1071 19.7792C16.0454 19.7391 15.9904 19.7108 15.9535 19.6924C15.8366 19.6088 15.717 19.4908 15.6112 19.3803C15.5191 19.2612 15.4366 19.1106 15.3661 18.9717C15.3191 18.8483 15.2841 18.6943 15.247 18.4956C15.2427 18.2905 15.2433 18.1167 15.2662 17.9674C15.3095 17.7989 15.3642 17.6112 15.4441 17.4486C15.5367 17.2958 15.6569 17.1108 15.7949 16.9655L15.8005 16.961C15.8371 16.9308 15.8969 16.8822 15.961 16.8165C15.9669 16.8123 15.973 16.8083 15.9792 16.804C16.0398 16.7634 16.0884 16.7241 16.1231 16.695C16.1752 16.6665 16.2264 16.6358 16.2764 16.6034L16.2823 16.6005C16.4558 16.5148 16.62 16.4342 16.7311 16.4155C16.7851 16.4064 16.8382 16.393 16.8903 16.3757C16.9031 16.3741 16.9162 16.3727 16.929 16.3714C16.9845 16.365 17.055 16.3572 17.1354 16.3423C17.1645 16.342 17.192 16.342 17.2195 16.3412C17.2884 16.3412 17.3469 16.3359 17.3891 16.3313C17.7773 16.35 18.1405 16.4472 18.4692 16.6208C18.8228 16.8179 19.0796 17.0886 19.2329 17.2817C19.2374 17.2876 19.2423 17.2932 19.2471 17.2988C19.414 17.4999 19.5138 17.7279 19.6073 17.964C19.6262 18.0222 19.6471 18.0801 19.6695 18.1378C19.6759 18.1722 19.6847 18.2176 19.6978 18.2694C19.708 18.3116 19.7186 18.3533 19.7298 18.3944C19.7317 18.4139 19.7339 18.4358 19.7371 18.4596C19.7459 18.5405 19.7557 18.6094 19.7648 18.666C19.7656 18.7322 19.7704 18.7909 19.7744 18.8374C19.7894 19.0126 19.814 19.3026 19.7798 19.7023C19.7747 19.7343 19.7699 19.7672 19.7651 19.8008C19.7197 20.1071 19.673 20.4241 19.5112 20.729C19.505 20.7405 19.4989 20.7522 19.4933 20.7643C19.3253 21.1127 19.0236 21.618 18.5389 22.0532C18.0251 22.4815 17.4425 22.7835 16.7589 22.9769C16.6887 22.9811 16.5851 22.9891 16.4652 23.0172C16.404 23.0287 16.3431 23.0423 16.2831 23.0575C16.1282 23.0548 15.9917 23.0706 15.8782 23.0839C15.8382 23.0885 15.7859 23.0946 15.7562 23.0965C15.6713 23.0807 15.5845 23.0765 15.4983 23.0826C15.235 23.1016 14.9271 23.0284 14.5706 22.9435C14.5095 22.9288 14.4475 22.9141 14.3853 22.8994C14.263 22.8505 14.1375 22.81 14.0053 22.7761C14.0016 22.7739 13.9978 22.7715 13.9938 22.7694C13.9236 22.7301 13.8205 22.6727 13.6886 22.6241C13.6542 22.61 13.6189 22.5963 13.5831 22.583L13.5292 22.5467C13.4106 22.4639 13.2996 22.4086 13.2173 22.368C13.197 22.3579 13.1701 22.3445 13.1567 22.3373C13.1532 22.3352 13.15 22.3328 13.1468 22.3306C12.7316 22.05 12.3457 21.6668 12.0208 21.324C11.7022 20.9285 11.4525 20.47 11.2304 20.0294C11.0421 19.5618 10.9313 19.0179 10.836 18.4937C10.8213 17.89 10.8194 17.3447 10.9062 16.8374C11.0317 16.3394 11.1965 15.766 11.464 15.2403C11.7262 14.8039 12.0814 14.2525 12.5252 13.7933C12.5297 13.7884 12.5343 13.7836 12.5388 13.7786C12.5527 13.7641 12.5986 13.7268 12.632 13.6993C12.7097 13.636 12.8056 13.5575 12.9052 13.4541L13.0013 13.358C13.0496 13.3265 13.0977 13.2942 13.1447 13.2611C13.2576 13.1868 13.3492 13.1091 13.4176 13.0514C13.439 13.0333 13.467 13.0095 13.4838 12.9964C13.6366 12.9174 13.7872 12.8285 13.9327 12.7313L14.0211 12.6878C14.5209 12.4413 14.9928 12.2082 15.4529 12.1315C15.5266 12.1193 15.5984 12.099 15.6676 12.0712C15.7263 12.0477 15.8657 12.0319 15.9885 12.0183C16.1394 12.0015 16.3092 11.9825 16.4953 11.9401C16.5039 11.9403 16.5122 11.9406 16.5207 11.9409C16.6198 11.9428 16.7124 11.9422 16.803 11.9393C16.9282 11.9406 17.039 11.9281 17.1215 11.919C17.1437 11.9166 17.1723 11.9134 17.191 11.9118C17.2115 11.9139 17.2318 11.9155 17.2524 11.9163C18.38 11.966 19.4393 12.2493 20.4009 12.7591C21.4319 13.331 22.1702 14.1075 22.6084 14.659C22.6129 14.6648 22.6175 14.6704 22.6223 14.6763C23.1518 15.3137 23.4471 15.9976 23.7016 16.6451C23.7537 16.8069 23.8135 16.9701 23.8797 17.1308C23.8856 17.1578 23.8928 17.1981 23.8989 17.2323C23.9118 17.3052 23.9278 17.3952 23.9537 17.4932C23.9841 17.6224 24.0188 17.753 24.0573 17.882C24.0576 17.8876 24.0578 17.8932 24.0581 17.8985C24.0608 17.9517 24.0642 18.0216 24.076 18.1031C24.1038 18.3608 24.135 18.5533 24.1582 18.6772C24.1545 18.8029 24.1534 18.9984 24.166 19.262C24.1673 19.3418 24.1745 19.4107 24.1799 19.4628C24.1807 19.4713 24.1817 19.4799 24.1825 19.4884C24.1646 19.6241 24.151 19.7621 24.1411 19.8994C24.1315 19.9987 24.1299 20.09 24.1283 20.1645C24.1275 20.2046 24.1267 20.2518 24.1243 20.2836C24.0848 20.454 24.0506 20.6308 24.0231 20.811C23.8672 21.5344 23.6728 22.3061 23.2052 23.1005C23.2015 23.1064 23.198 23.1125 23.1948 23.1184C22.6372 24.1109 21.888 24.9924 21.0268 25.668C19.9485 26.4861 18.7013 27.0437 17.3205 27.3251C17.294 27.3305 17.2735 27.3355 17.2476 27.343C17.2225 27.3486 17.1472 27.3537 17.0922 27.3574C16.9942 27.3641 16.8729 27.3721 16.7397 27.3943L16.4337 27.4378C16.412 27.4408 16.3904 27.4445 16.3693 27.449C16.3517 27.4525 16.3402 27.4546 16.3333 27.4557C16.3236 27.4549 16.3143 27.4544 16.3047 27.4538C16.0956 27.4434 15.8932 27.4512 15.7146 27.4578C15.4924 27.4661 15.2825 27.4741 15.1295 27.445C15.0734 27.4343 15.0163 27.4282 14.9591 27.4269C14.2286 27.4116 13.4795 27.1959 12.6491 26.9337C12.4347 26.8405 12.2128 26.7534 11.9879 26.6744C11.9367 26.6533 11.8608 26.6103 11.7807 26.5649C11.679 26.507 11.5639 26.4415 11.4296 26.3801L11.1818 26.2618L10.9556 26.1067C10.836 26.0215 10.7187 25.951 10.6151 25.8883C10.5219 25.8319 10.4336 25.7788 10.3719 25.7315C10.3673 25.728 10.3633 25.7248 10.3588 25.7216C9.70431 25.2367 9.06264 24.6079 8.39748 23.7996C7.8976 23.1325 7.45567 22.3317 7.04658 21.3525C6.7638 20.576 6.57208 19.6788 6.44417 18.5343C6.42815 17.3583 6.50719 16.4237 6.69277 15.5994C6.98704 14.5198 7.34619 13.6151 7.78972 12.8352C8.3932 11.8699 9.00923 11.0917 9.67253 10.4567C9.676 10.4535 9.67947 10.4503 9.68268 10.4471C9.75478 10.3761 9.85037 10.2995 9.95131 10.2183C10.0512 10.1384 10.1636 10.0482 10.2765 9.94539L10.5262 9.72616L10.8013 9.54565C10.9278 9.46527 11.0408 9.38169 11.1409 9.30799C11.2384 9.23563 11.3305 9.16754 11.4039 9.12641C11.6413 9.00412 11.8798 8.87247 12.114 8.73495C12.9263 8.3515 13.8667 7.93574 14.8101 7.7862C14.8574 7.77873 14.9041 7.76778 14.9501 7.75389C15.1778 7.68393 15.4563 7.65776 15.7509 7.62973C15.9538 7.6105 16.1634 7.59074 16.384 7.55549C16.3976 7.55336 16.4112 7.55095 16.4246 7.54828C16.4379 7.54561 16.4729 7.54187 16.5546 7.54668C16.5728 7.54775 16.5907 7.54828 16.6088 7.54855L16.9885 7.55122C17.1287 7.55549 17.258 7.54962 17.3725 7.54454C17.4809 7.53974 17.5928 7.5344 17.6534 7.54268C17.6753 7.54561 17.6975 7.54775 17.7197 7.54935C19.521 7.67192 21.2826 8.20544 22.8145 9.09197C24.1198 9.86501 25.3115 10.9475 26.2611 12.2229C26.2643 12.2271 26.2672 12.2309 26.2704 12.2351C27.1225 13.3444 27.5869 14.4814 27.9279 15.4499C28.0021 15.6953 28.0827 15.9434 28.1679 16.1885C28.1906 16.2742 28.2082 16.3733 28.2267 16.4777C28.2448 16.5794 28.2635 16.6844 28.2897 16.7962L28.4195 17.381C28.4203 17.3848 28.4211 17.3885 28.4221 17.3922C28.4288 17.4216 28.4331 17.4892 28.4365 17.5487C28.4408 17.6168 28.4454 17.6932 28.4558 17.7776C28.4966 18.2107 28.5337 18.5071 28.5532 18.6507C28.549 18.7939 28.5428 19.0927 28.5482 19.5343C28.5466 19.6187 28.55 19.6954 28.553 19.764C28.5556 19.8259 28.5586 19.8964 28.5546 19.9279C28.5543 19.9317 28.5538 19.9354 28.5532 19.9392L28.4854 20.5424C28.4715 20.6561 28.4638 20.7637 28.4566 20.8676C28.4486 20.9782 28.4411 21.0831 28.4269 21.175C28.3687 21.4276 28.3137 21.6887 28.2632 21.9528C28.0178 22.9942 27.6608 24.2273 26.8859 25.4979C26.8835 25.5016 26.8811 25.5056 26.8787 25.5096C26.0029 26.9905 24.8301 28.3032 23.4875 29.3062C21.8508 30.503 19.8983 31.3257 17.8406 31.6854C17.8222 31.6886 17.8035 31.6924 17.7851 31.6966C17.6874 31.7193 17.5493 31.7289 17.4027 31.7391C17.2783 31.7479 17.1375 31.7578 16.9893 31.7775L16.5434 31.8256C16.529 31.8272 16.5143 31.8291 16.4996 31.8312C16.3987 31.8467 16.3231 31.8523 16.27 31.848C16.2564 31.847 16.243 31.8462 16.2294 31.8456C15.9981 31.8366 15.7722 31.8384 15.5535 31.8403C15.168 31.8435 14.8043 31.8464 14.4796 31.7896C14.4411 31.7826 14.4019 31.7781 14.3623 31.7757C13.1434 31.7038 11.9222 31.3231 10.884 30.9562C10.5855 30.8245 10.2771 30.6947 9.96626 30.57C9.83916 30.5153 9.6971 30.4341 9.54676 30.3481C9.41912 30.275 9.28721 30.1994 9.14115 30.126L8.74621 29.9182L8.37772 29.664C8.24474 29.569 8.11416 29.4838 7.98786 29.4013C7.83111 29.2993 7.68344 29.2031 7.55821 29.1046C7.55527 29.1025 7.55233 29.1003 7.54966 29.0979C6.65058 28.4069 5.7774 27.5342 4.95069 26.5013C3.19311 24.0575 2.13008 21.0826 2.05504 17.867C2.08068 16.561 2.22167 15.4013 2.48416 14.3412C2.89725 12.8693 3.44866 11.5484 4.12397 10.4143C4.94802 9.1184 5.86045 8.00436 6.83563 7.10368C6.83804 7.10128 6.84071 7.09914 6.84311 7.09674C6.97502 6.9723 7.12883 6.85027 7.29198 6.72103C7.41588 6.6225 7.54406 6.52076 7.67383 6.40941L8.05915 6.09058L8.47518 5.81901C8.61831 5.72876 8.74995 5.63717 8.87732 5.54851C9.04502 5.43209 9.20336 5.32208 9.34729 5.2441C9.66906 5.07241 9.98976 4.90097 10.3089 4.73034C11.8563 4.01204 13.0486 3.6139 14.1714 3.43953C14.2059 3.43419 14.24 3.42725 14.2739 3.41817C14.6737 3.3135 15.1111 3.27638 15.5744 3.23713C15.8035 3.21763 16.0406 3.19734 16.2812 3.16823C16.2913 3.16717 16.3018 3.16556 16.3119 3.16396C16.3973 3.15114 16.5026 3.14794 16.6435 3.15488C16.6548 3.15542 16.6662 3.15568 16.6775 3.15595L17.1976 3.16316C17.3552 3.16903 17.5031 3.1669 17.6462 3.16503C17.8326 3.16236 18.0091 3.15969 18.1498 3.17811C18.1667 3.18025 18.1832 3.18185 18.2 3.18319C20.696 3.38105 23.1326 4.15944 25.2413 5.43129C27.0344 6.52744 28.6536 8.03801 29.9242 9.79932C29.9263 9.80253 29.9287 9.80573 29.9311 9.80894C31.1431 11.4498 31.7832 13.1393 32.1597 14.2718L32.1976 14.3965C32.2887 14.6966 32.3757 14.9829 32.4585 15.2547C32.498 15.4072 32.5266 15.5668 32.5565 15.7356C32.5776 15.8539 32.5992 15.9759 32.6257 16.0996L32.6558 16.2504C32.7007 16.4771 32.7429 16.6894 32.7827 16.8873C32.8006 16.9768 32.8078 17.0844 32.8153 17.1981C32.8211 17.283 32.827 17.3709 32.8377 17.4643L32.9234 18.3749C32.5883 24.3558 28.8355 29.4381 23.5911 31.6972Z" fill="#EACC97"/>
<path d="M34.9806 18.3354C34.9935 18.058 35.0004 17.7795 35.0004 17.4999C35.0004 12.8256 33.1801 8.43085 29.8748 5.12559C26.5695 1.82033 22.1748 0 17.5005 0V3.16614C17.5496 3.16561 17.599 3.16534 17.6471 3.16454C17.8337 3.16187 18.0102 3.15947 18.151 3.17762C18.1675 3.17976 18.1843 3.18163 18.2012 3.18297C20.6971 3.38083 23.1337 4.15922 25.2424 5.4308C27.0355 6.52722 28.6548 8.03779 29.9253 9.79883C29.9274 9.80204 29.9298 9.80524 29.9319 9.80845C31.1443 11.4493 31.7843 13.1391 32.1608 14.2713L32.1985 14.396C32.2898 14.6964 32.3768 14.9824 32.4596 15.2545C32.4991 15.4067 32.5275 15.5666 32.5576 15.7351C32.5787 15.8534 32.6004 15.9754 32.6268 16.0991L32.657 16.2502C32.7018 16.4769 32.744 16.6892 32.7838 16.8871C32.8017 16.9765 32.8089 17.0839 32.8164 17.1976C32.8223 17.2828 32.8281 17.3704 32.8388 17.4639L32.9245 18.3744C32.5891 24.3553 28.8363 29.4376 23.5916 31.6967C23.974 31.4662 24.3452 31.22 24.7033 30.9578C24.7057 30.9559 24.7084 30.9541 24.7108 30.9522C26.2689 29.7896 27.628 28.2707 28.6414 26.5596C29.5747 25.0271 29.9998 23.532 30.2657 22.4004C30.2692 22.386 30.2721 22.3715 30.2751 22.3569C30.3234 22.101 30.3768 21.8484 30.4332 21.606C30.4374 21.587 30.4414 21.5678 30.4446 21.5486C30.4791 21.3494 30.4919 21.1705 30.5031 21.0124C30.509 20.9296 30.5146 20.8514 30.5223 20.7899C30.5229 20.7857 30.5234 20.7814 30.5237 20.7771L30.5918 20.172C30.6155 19.9742 30.6081 19.8017 30.6027 19.6754C30.6011 19.6351 30.599 19.5891 30.5998 19.5691C30.6 19.5547 30.6003 19.5403 30.6 19.5258C30.5928 18.9573 30.6062 18.6505 30.6065 18.6473C30.607 18.6326 30.6062 18.6179 30.6062 18.6033C30.6062 18.5832 30.607 18.5629 30.6059 18.5426V18.5424C30.6041 18.5093 30.6009 18.4759 30.596 18.4425C30.5955 18.4393 30.5496 18.1306 30.497 17.5683C30.4956 17.5541 30.494 17.5402 30.4924 17.5263C30.4898 17.5074 30.4871 17.4628 30.4847 17.4235C30.4769 17.2986 30.4668 17.1279 30.4219 16.9327L30.2916 16.3455C30.2906 16.341 30.2895 16.3362 30.2884 16.3317C30.2745 16.2729 30.2612 16.1976 30.247 16.118C30.2198 15.9656 30.1891 15.7923 30.1341 15.6005C30.1287 15.5818 30.1229 15.5632 30.1165 15.545C30.0342 15.3089 29.9565 15.07 29.8855 14.8342C29.8809 14.8197 29.8761 14.8053 29.8713 14.7912C29.4996 13.7324 28.9402 12.3441 27.9028 10.9916C26.7917 9.50163 25.3927 8.23352 23.8565 7.32429C23.8536 7.32269 23.8509 7.32109 23.8483 7.31949C22.0533 6.27968 19.9932 5.65243 17.8887 5.50477C17.751 5.48875 17.6209 5.48634 17.5008 5.48848V7.53898C17.5627 7.53711 17.618 7.53738 17.6546 7.54219C17.6765 7.54512 17.6986 7.54726 17.7208 7.54886C19.5222 7.67143 21.2837 8.20495 22.8159 9.09148C24.1209 9.86452 25.3126 10.9471 26.2622 12.2224C26.2654 12.2266 26.2683 12.2304 26.2715 12.2347C27.1236 13.3439 27.588 14.4809 27.929 15.4494C28.0032 15.6948 28.0839 15.9429 28.169 16.188C28.1917 16.2737 28.2094 16.3728 28.2278 16.4772C28.2459 16.5789 28.2646 16.6839 28.2908 16.7957L28.4206 17.3805C28.4214 17.3843 28.4222 17.388 28.4232 17.3918C28.4299 17.4211 28.4342 17.4887 28.4377 17.5482C28.4419 17.6163 28.4465 17.6927 28.4569 17.7771C28.4977 18.2102 28.5351 18.5066 28.5544 18.6503C28.5501 18.7934 28.5439 19.0922 28.5493 19.5338C28.5477 19.6182 28.5511 19.6949 28.5541 19.7635C28.5568 19.8254 28.5597 19.8959 28.5557 19.9274C28.5554 19.9312 28.5549 19.9349 28.5544 19.9387L28.4868 20.5419C28.4726 20.6556 28.4649 20.7632 28.4577 20.8671C28.4497 20.9777 28.4422 21.0826 28.428 21.1745C28.3698 21.4271 28.3148 21.6882 28.2646 21.9523C28.019 22.9937 27.6619 24.2269 26.887 25.4974C26.8846 25.5011 26.8822 25.5051 26.8801 25.5091C26.004 26.9901 24.8312 28.3028 23.4886 29.3057C21.852 30.5025 19.8995 31.3252 17.8417 31.6849C17.8233 31.6881 17.8046 31.6919 17.7862 31.6961C17.7104 31.7138 17.61 31.7234 17.5008 31.7317V34.9998C22.1751 34.9998 26.5698 33.1795 29.8751 29.8742C32.8401 26.9094 34.6089 23.0677 34.9419 18.9338C34.9897 18.7985 35.0105 18.6511 34.9961 18.4988L34.9806 18.3354Z" fill="#A36C22"/>
<path d="M22.2738 27.296C22.2778 27.2928 22.2815 27.2899 22.2855 27.287C23.3577 26.4472 24.2885 25.3561 24.9782 24.1312C25.6036 23.0655 25.8517 22.0652 26.0349 21.2108C26.0394 21.1894 26.0434 21.1683 26.0466 21.1469C26.0693 20.9945 26.0979 20.8465 26.1318 20.7069C26.1382 20.6799 26.1438 20.6527 26.1481 20.6252C26.174 20.4601 26.1769 20.3122 26.1791 20.2043C26.1799 20.1667 26.1807 20.1151 26.1825 20.0975C26.1841 20.0836 26.1855 20.07 26.1863 20.0561C26.194 19.9418 26.2055 19.8318 26.221 19.7197C26.2213 19.717 26.2218 19.7141 26.2221 19.7114C26.2474 19.5167 26.2303 19.3514 26.2202 19.2526C26.2191 19.2417 26.2178 19.231 26.217 19.2203C26.2167 19.207 26.2164 19.1939 26.2156 19.1808C26.2023 18.9124 26.2076 18.7477 26.2098 18.6954C26.2199 18.5875 26.2138 18.4761 26.1873 18.3642C26.1868 18.3626 26.147 18.1853 26.1131 17.863C26.1118 17.8494 26.1099 17.8361 26.108 17.8227C26.1072 17.8136 26.107 17.8048 26.1064 17.7955C26.1016 17.6972 26.0934 17.5325 26.0367 17.3415C26.0359 17.3386 26.0351 17.3357 26.0343 17.333C26.0015 17.2259 25.9724 17.1178 25.9476 17.0109C25.9443 16.9971 25.9409 16.9834 25.9371 16.9696C25.9329 16.9538 25.9243 16.9071 25.9184 16.8729C25.9 16.7701 25.8752 16.6294 25.8245 16.4734C25.8154 16.4456 25.8052 16.4181 25.7937 16.3914C25.7369 16.2569 25.6888 16.1266 25.6466 15.9922C25.6394 15.9703 25.6319 15.9484 25.6234 15.9271C25.32 15.1527 24.9355 14.2536 24.2073 13.374C23.4121 12.3754 22.4367 11.5406 21.3859 10.9598C21.3811 10.9572 21.376 10.9545 21.3712 10.9518C20.1814 10.319 18.8796 9.95822 17.4999 9.87598V11.931C18.5354 12.0087 19.5103 12.2864 20.4011 12.7585C21.4321 13.3305 22.1705 14.107 22.6086 14.6584C22.6132 14.6643 22.618 14.6699 22.6225 14.6758C23.152 15.3132 23.4474 15.997 23.7019 16.6446C23.7539 16.8064 23.8137 16.9696 23.88 17.1303C23.8861 17.1573 23.893 17.1976 23.8992 17.2318C23.9123 17.3047 23.928 17.3947 23.9539 17.4927C23.9844 17.6219 24.0191 17.7525 24.0575 17.8815C24.0578 17.8871 24.0581 17.8927 24.0583 17.898C24.061 17.9511 24.0645 18.0211 24.0762 18.1026C24.104 18.3602 24.1352 18.5528 24.1585 18.6767C24.1547 18.8024 24.1539 18.9979 24.1665 19.2615C24.1675 19.3413 24.1748 19.4102 24.1801 19.4623C24.1809 19.4708 24.182 19.4793 24.1828 19.4879C24.1651 19.6235 24.1513 19.7616 24.1416 19.8988C24.1318 19.9982 24.1302 20.0895 24.1286 20.164C24.1278 20.2041 24.127 20.2513 24.1246 20.2831C24.085 20.4535 24.0511 20.6302 24.0234 20.8105C23.8674 21.5339 23.673 22.3056 23.2055 23.1C23.202 23.1058 23.1985 23.112 23.195 23.1179C22.6378 24.1104 21.8882 24.9919 21.0273 25.6674C19.9955 26.4501 18.8096 26.9935 17.4999 27.2859V29.3778C17.5824 29.3668 17.671 29.3513 17.7632 29.3273C19.438 28.9812 20.9552 28.2979 22.2738 27.296Z" fill="#6F2205"/>
<path d="M19.8919 23.5942C20.4759 23.0738 20.9737 22.4097 21.332 21.6719C21.6517 21.0615 21.7371 20.4839 21.7937 20.1002C21.7996 20.0598 21.8055 20.0206 21.8113 19.9827C21.8146 19.9616 21.8172 19.9405 21.8194 19.9191C21.8736 19.3282 21.8367 18.8844 21.8183 18.6681C21.8252 18.5666 21.8167 18.4673 21.7953 18.3725L21.7956 18.3746C21.7956 18.3746 21.7951 18.3717 21.7943 18.3674C21.794 18.3669 21.794 18.3663 21.794 18.3658C21.7905 18.3474 21.7822 18.299 21.7742 18.224C21.774 18.2216 21.7737 18.2195 21.7734 18.2173C21.7702 18.1549 21.7622 18.0366 21.719 17.8908C21.708 17.8547 21.6989 17.8211 21.6912 17.7877C21.6901 17.7826 21.6888 17.7773 21.6874 17.7722L21.6853 17.7602C21.6757 17.7062 21.6597 17.6163 21.6255 17.5108C21.6164 17.4827 21.606 17.455 21.5945 17.4277C21.5777 17.3882 21.5635 17.3495 21.551 17.3097C21.5438 17.2873 21.536 17.2654 21.5275 17.2435C21.422 16.9746 21.226 16.475 20.8316 15.997C20.4447 15.5121 19.9683 15.1057 19.454 14.8215C19.4492 14.8189 19.4444 14.8162 19.4396 14.8138C18.8439 14.4968 18.1923 14.3187 17.5023 14.2835C17.5015 14.2835 17.5007 14.2835 17.4996 14.2832V16.3393C17.8462 16.3698 18.172 16.4638 18.4692 16.6205C18.8228 16.8176 19.0794 17.0883 19.2329 17.2814C19.2375 17.2873 19.242 17.2929 19.2468 17.2985C19.4137 17.4996 19.5138 17.7276 19.607 17.9637C19.6263 18.0219 19.6471 18.0798 19.6695 18.1375C19.6757 18.1719 19.6845 18.2173 19.6978 18.2691C19.708 18.3113 19.7184 18.353 19.7299 18.3941C19.7315 18.4136 19.7339 18.4355 19.7368 18.4593C19.7459 18.5402 19.7555 18.6091 19.7646 18.6657C19.7656 18.7319 19.7704 18.7906 19.7745 18.8371C19.7891 19.0123 19.814 19.3023 19.7795 19.702C19.7747 19.7341 19.7699 19.7669 19.7648 19.8006C19.7197 20.1068 19.6727 20.4238 19.5109 20.7287C19.5048 20.7402 19.4989 20.752 19.4933 20.764C19.325 21.1125 19.0236 21.6177 18.5389 22.0529C18.2214 22.3176 17.8775 22.5336 17.4996 22.7061V24.8952C18.3955 24.6183 19.1723 24.1985 19.8687 23.6143C19.8767 23.6076 19.8845 23.6009 19.8919 23.5942Z" fill="#6F2205"/>
</g>
<defs>
<clipPath id="clip0_13_343">
<rect width="35" height="35" fill="white"/>
</clipPath>
</defs>
</svg>
